<?xml version="1.0" encoding="utf-8"?>
<!-- Generator: Adobe Illustrator 23.0.1, SVG Export Plug-In . SVG Version: 6.00 Build 0)  -->
<svg version="1.1" id="레이어_1" xmlns="http://www.w3.org/2000/svg" xmlns:xlink="http://www.w3.org/1999/xlink" x="0px"
	 y="0px" viewBox="0 0 283.5 283.5" style="enable-background:new 0 0 283.5 283.5;" xml:space="preserve">
<style type="text/css">
	.st0{fill:#0C0C0C;}
	.st1{fill:#FFFFFF;}
</style>
<rect class="st0" width="283.5" height="283.5"/>
<g>
	<g>
		<path class="st1" d="M111.6,160.2v0.1c0,0.1,0,0.2,0,0.3s0,0.1-0.1,0.2c-0.1,0.1-0.2,0.2-0.3,0.3c-0.1,0.1-0.3,0.1-0.5,0.1
			s-0.4,0-0.6,0c-0.2-0.1-0.3-0.2-0.4-0.4c0-0.1-0.1-0.2-0.1-0.2c0-0.1,0-0.1,0-0.2l0.5-0.1l0.6-0.1L111.6,160.2L111.6,160.2z
			 M111.3,159c0,0-0.1,0-0.2,0c0,0-0.3,0.1-0.8,0.1s-0.9,0.1-1.1,0.2l-1.1,0.1c0,0-0.1,0-0.3,0s-0.3,0-0.4,0.1H107
			c0,0,0,0.1,0.1,0.2c0,0.1,0.1,0.3,0.1,0.3s0,0.1,0,0.3c0,0.1,0,0.3,0,0.3c0.1,0,0.3-0.1,0.6-0.1c0.3-0.1,0.4-0.1,0.6-0.1
			s0.3-0.1,0.5-0.1s0.3-0.1,0.5-0.1v0.1c0,0.1,0,0.1,0,0.2c0,0,0,0.1,0,0.2c0,0.1,0.1,0.2,0.1,0.3c0.1,0.2,0.2,0.4,0.2,0.5
			c0.1,0.1,0.2,0.3,0.4,0.4c0.2,0.1,0.3,0.2,0.5,0.2s0.4,0,0.6,0c0.3,0,0.6-0.2,0.7-0.4c0.2-0.2,0.3-0.5,0.3-0.8c0-0.1,0-0.3,0-0.4
			c0-0.1,0-0.3-0.1-0.4c0,0,0-0.1-0.1-0.4c0-0.2-0.1-0.4-0.1-0.5l-0.1-0.7C111.6,158.9,111.4,159,111.3,159z"/>
		<path class="st1" d="M112.4,164.2c0.1,0.3,0.1,0.4,0,0.6c0,0.2-0.2,0.3-0.4,0.4c-0.1,0.1-0.2,0.1-0.3,0.1
			c-0.7,0.1-1.1-0.1-1.2-0.7c0-0.1,0-0.1,0-0.2l0.5-0.1l0.6-0.1l0.8-0.2C112.4,164.1,112.4,164.1,112.4,164.2z M108.3,166.9
			c0,0,0,0.1,0,0.3c0,0.1,0,0.3,0.1,0.4l0.3-0.3c0.1-0.1,0.3-0.3,0.6-0.6c0.4-0.4,0.8-0.8,1.1-1c0.1,0.3,0.3,0.6,0.6,0.7
			c0.3,0.2,0.6,0.2,0.9,0.1c0.2-0.1,0.4-0.1,0.6-0.3c0.1-0.1,0.3-0.3,0.3-0.6c0.1-0.1,0.1-0.3,0-0.4s-0.1-0.4-0.1-0.7
			c0-0.2-0.1-0.3-0.1-0.5s-0.1-0.3-0.1-0.5l-0.1-0.5c-0.1,0-0.5,0.1-1,0.2c-0.2,0.1-0.4,0.1-0.6,0.1l-1.3,0.3c-0.1,0-0.3,0-0.6,0.1
			c-0.3,0.1-0.6,0.1-0.8,0.1l-0.5,0.1h-0.1c0,0,0,0.1,0.1,0.3c0,0.1,0.1,0.2,0.1,0.3c0,0,0,0.1,0,0.3c0,0.1,0,0.3,0.1,0.3
			s0.2-0.1,0.3-0.1c0.2-0.1,0.3-0.1,0.4-0.1h0.2l1.3-0.3c0,0,0,0,0.1,0c0,0,0,0,0,0.1l-0.3,0.3l-0.3,0.3l-1.3,1.1
			C108.2,166.5,108.3,166.7,108.3,166.9z"/>
		<path class="st1" d="M110,169.6c0.3-0.3,0.6-0.6,1.1-0.8c0.3-0.1,0.5-0.2,0.8-0.2c0.3-0.1,0.5-0.1,0.8,0s0.5,0.1,0.7,0.3
			c0.1,0.1,0.3,0.2,0.3,0.3s0.1,0.2,0.2,0.4c0.2,0.5,0.1,0.9-0.2,1.3c-0.3,0.4-0.6,0.6-1.2,0.8c-0.3,0.1-0.5,0.2-0.8,0.2
			s-0.5,0.1-0.7,0c-0.3,0-0.6-0.1-0.8-0.3c-0.2-0.1-0.4-0.4-0.5-0.6C109.7,170.5,109.7,170,110,169.6z M113.4,172.6
			c0.2-0.1,0.3-0.2,0.5-0.4s0.3-0.3,0.4-0.5c0.1-0.1,0.2-0.3,0.2-0.6c0.1-0.3,0.1-0.6,0.1-0.9c0-0.3-0.1-0.6-0.2-0.9
			c-0.1-0.4-0.3-0.7-0.5-1s-0.5-0.5-0.8-0.7s-0.7-0.3-1-0.3c-0.4,0-0.7,0-1.1,0.2c-0.4,0.1-0.7,0.3-0.9,0.5
			c-0.3,0.2-0.4,0.5-0.6,0.8s-0.2,0.7-0.2,1c0,0.4,0.1,0.7,0.2,1.1c0.1,0.4,0.3,0.7,0.5,1s0.5,0.5,0.8,0.7s0.7,0.3,1,0.3
			c0.4,0,0.7,0,1.1-0.2C113.1,172.7,113.3,172.6,113.4,172.6z"/>
		<path class="st1" d="M116.4,174c0.1,0.1,0.1,0.1,0.2,0.3c0.1,0.1,0.1,0.2,0.1,0.2c0.1,0.1,0.1,0.1,0.2,0.3
			c0.1,0.1,0.2,0.2,0.2,0.2c-0.1,0.1-0.3,0.2-0.4,0.3c-0.2,0.1-0.3,0.2-0.4,0.3l-0.2,0.2l-0.5,0.4c0.1,0.1,0.2,0.3,0.4,0.5
			c0.2,0.2,0.3,0.4,0.3,0.4c0.1,0.1,0.2,0.3,0.4,0.5c0.2,0.2,0.3,0.3,0.3,0.4l0.8-0.6c0.1-0.1,0.2-0.2,0.3-0.2
			c0.3-0.2,0.4-0.4,0.5-0.4c0.1,0.1,0.1,0.2,0.2,0.3s0.1,0.2,0.2,0.2c0,0.1,0.1,0.1,0.2,0.2s0.2,0.2,0.2,0.2
			c-0.1,0.1-0.2,0.2-0.3,0.2c-0.3,0.2-0.5,0.3-0.5,0.4l-1.3,1c-0.2,0.2-0.5,0.4-0.7,0.6c-0.7,0.6-1,0.9-1.1,0.9
			c-0.1-0.1-0.1-0.1-0.2-0.3c-0.1-0.1-0.1-0.2-0.1-0.2c-0.1-0.1-0.1-0.2-0.3-0.3c-0.1-0.1-0.2-0.2-0.2-0.2l0.8-0.6l0.8-0.6l0.3-0.2
			l-0.7-0.9l-0.7-0.9l-0.7,0.6c-0.2,0.1-0.4,0.3-0.6,0.5c-0.3,0.2-0.4,0.4-0.5,0.4c-0.1-0.1-0.1-0.1-0.2-0.3
			c-0.1-0.1-0.1-0.2-0.1-0.2c-0.1-0.1-0.1-0.2-0.2-0.3s-0.2-0.2-0.2-0.2c0.2-0.2,0.5-0.4,0.8-0.6c0.7-0.5,1.2-0.8,1.3-1
			c0.3-0.2,0.5-0.4,0.7-0.5C116,174.3,116.3,174,116.4,174z"/>
		<path class="st1" d="M118.3,182c0-0.4,0.2-0.9,0.5-1.3c0.2-0.2,0.3-0.4,0.6-0.6c0.2-0.2,0.4-0.3,0.6-0.4s0.5-0.2,0.7-0.2
			s0.3,0,0.4,0.1s0.2,0.1,0.4,0.2c0.4,0.3,0.6,0.7,0.6,1.2c0,0.4-0.2,0.9-0.5,1.3c-0.2,0.2-0.3,0.4-0.5,0.6
			c-0.2,0.2-0.4,0.3-0.6,0.4c-0.3,0.1-0.6,0.2-0.8,0.2c-0.3,0-0.5-0.1-0.7-0.3C118.5,182.9,118.3,182.5,118.3,182z M122.8,182.6
			c0.1-0.2,0.2-0.4,0.2-0.6c0.1-0.2,0.1-0.4,0.1-0.6c0-0.2-0.1-0.4-0.1-0.6c-0.1-0.3-0.2-0.5-0.4-0.8c-0.2-0.2-0.4-0.4-0.7-0.6
			c-0.3-0.2-0.6-0.4-1-0.5s-0.7-0.2-1.1-0.1c-0.4,0-0.7,0.1-1,0.3s-0.6,0.4-0.8,0.7c-0.2,0.3-0.4,0.6-0.5,0.9
			c-0.1,0.3-0.1,0.6-0.1,1c0.1,0.4,0.2,0.7,0.4,1s0.5,0.6,0.8,0.8s0.6,0.4,1,0.5s0.7,0.1,1,0.1c0.4,0,0.7-0.1,1-0.3s0.6-0.4,0.8-0.7
			C122.6,183,122.7,182.8,122.8,182.6z"/>
		<path class="st1" d="M123.6,183.4l1.1-1.9c0,0,0.1,0,0.1,0.1c0.1,0,0.1,0.1,0.1,0.1c0.1,0,0.1,0,0.2,0.1c0.1,0,0.1,0,0.1,0
			c0,0.6,0,1,0.1,1.3c0,0.1,0,0.5,0.1,1.3c0,0.4,0.1,0.9,0.1,1.3l0.7-0.6c0.8-0.6,1.5-1.3,2.2-1.9h0.1c0,0,0.1,0,0.1,0.1
			c0,0,0.1,0,0.1,0.1c0.1,0,0.2,0.1,0.3,0.1c-0.3,0.8-0.4,1.5-0.6,2.1c-0.1,0.5-0.3,0.9-0.3,1.2l-0.3,1.2v0.1c0,0.1,0,0.1,0,0.2
			c-0.1,0-0.2-0.1-0.3-0.1c-0.1-0.1-0.2-0.1-0.2-0.1c-0.1,0-0.2-0.1-0.3-0.1c-0.1-0.1-0.2-0.1-0.2-0.1c0.2-0.4,0.3-0.9,0.5-1.5
			s0.3-1.1,0.5-1.7c-0.3,0.3-0.6,0.5-0.9,0.8s-0.6,0.5-0.9,0.8c-0.2,0.2-0.5,0.5-0.9,0.8c-0.1,0-0.1-0.1-0.2-0.1h-0.1l-0.1-1.3
			c0-0.4,0-0.8-0.1-1.2c0-0.4-0.1-0.8-0.1-1.2l-0.6,1.1l-0.4,0.7l-0.3,0.6l-0.2,0.4c-0.1-0.1-0.2-0.1-0.2-0.1h-0.1
			c-0.1,0-0.2-0.1-0.3-0.1c0,0,0-0.1,0.1-0.1c0,0,0,0,0.1-0.1s0.2-0.3,0.3-0.5c0.1-0.2,0.2-0.3,0.3-0.5c0.1-0.2,0.3-0.4,0.4-0.6
			C123.4,183.7,123.5,183.5,123.6,183.4z"/>
		<path class="st1" d="M131.3,183.8c0,0.1-0.1,0.2-0.1,0.4c-0.1,0.3-0.2,0.5-0.2,0.6s-0.1,0.4-0.2,0.7c-0.1,0.3-0.2,0.5-0.2,0.7
			s-0.1,0.4-0.2,0.7c-0.1,0.3-0.1,0.6-0.2,0.7c0,0.1-0.1,0.3-0.1,0.6c0,0.1-0.1,0.3-0.1,0.4c-0.1,0-0.2-0.1-0.3-0.1
			s-0.2-0.1-0.2-0.1c-0.2-0.1-0.4-0.1-0.6-0.1c0.1-0.3,0.2-0.6,0.3-0.9c0.3-0.9,0.4-1.4,0.5-1.6l0.1-0.4l0.2-0.9
			c0-0.1,0.1-0.3,0.1-0.4s0.1-0.3,0.1-0.6c0.1,0,0.2,0.1,0.3,0.1c0.1,0.1,0.2,0.1,0.2,0.1c0.1,0,0.2,0.1,0.3,0.1
			C131.2,183.8,131.3,183.8,131.3,183.8z"/>
		<path class="st1" d="M132.2,189.1L132.2,189.1l-0.3-0.1c-0.1,0-0.2,0-0.3,0c0.1-0.5,0.2-1,0.3-1.6s0.2-1.2,0.3-1.8l0.2-1.1v-0.3
			c0.1,0,0.2,0.1,0.3,0.1s0.2,0,0.3,0c0.1,0.2,0.4,0.6,0.9,1.3c0.3,0.4,0.6,0.9,0.9,1.3c0.4,0.5,0.6,1,0.9,1.3l0.2-1.6l0.1-0.8
			c0-0.1,0-0.2,0.1-0.4c0-0.2,0-0.3,0-0.4v-0.1c0.1,0,0.1,0,0.2,0.1c0.1,0,0.1,0,0.1,0s0.1,0,0.2,0s0.1,0,0.2,0l-0.1,0.4
			c0,0.1,0,0.2-0.1,0.3c-0.1,0.3-0.1,0.5-0.1,0.6c0,0.2-0.1,0.4-0.1,0.7c-0.1,0.3-0.1,0.5-0.1,0.6l-0.1,0.7l-0.2,1.5h-0.1
			c-0.1,0-0.1,0-0.2-0.1c-0.1,0-0.2,0-0.3,0c-0.3-0.5-0.5-0.8-0.6-1c-0.2-0.4-0.4-0.7-0.6-1c-0.2-0.2-0.4-0.6-0.7-1l-0.7-0.9l-0.2,1
			l-0.1,0.6c0,0.1-0.1,0.5-0.1,1.1C132.3,188.7,132.3,188.9,132.2,189.1z"/>
		<path class="st1" d="M142.2,185c0,0.2,0,0.4-0.1,0.5c0,0.2,0,0.3,0,0.5v0.7l-0.1,0.8c0,0.5-0.1,0.9-0.1,1.2
			c-0.1,0.4-0.3,0.7-0.7,0.9c-0.2,0.1-0.4,0.2-0.6,0.3s-0.5,0.1-0.7,0.1c-0.5,0-0.9-0.1-1.3-0.3c-0.4-0.2-0.7-0.5-0.8-1
			c0,0,0-0.1,0-0.2s0-0.1,0-0.2c0-0.1,0-0.1,0-0.2c0,0,0-0.1,0-0.2c0-0.1,0-0.1,0-0.2v-0.9v-0.9v-0.8v-0.3c0.1,0,0.2,0,0.3,0
			s0.2,0,0.3,0c0.2,0,0.4,0,0.6,0l-0.1,0.4c0,0.2,0,0.5-0.1,0.9s-0.1,0.7-0.1,0.8v0.3c0,0.2,0,0.4,0,0.5c0,0.2,0,0.4,0,0.5
			s0.1,0.3,0.1,0.4c0,0.1,0.1,0.2,0.3,0.4s0.5,0.3,0.8,0.3s0.6-0.1,0.8-0.2c0.2-0.1,0.4-0.4,0.5-0.7c0.1-0.1,0.1-0.3,0.1-0.6
			s0-0.6,0.1-0.9c0-0.2,0-0.6,0-1.1s0-0.9,0-1.1c0.1,0,0.1,0,0.2,0c0,0,0.1,0,0.2,0c0.1,0,0.1,0,0.2,0C142,185,142.1,185,142.2,185z
			"/>
		<path class="st1" d="M143.4,187.2l0.1-2.2c0,0,0.1,0,0.2,0c0.1,0,0.1,0,0.1,0c0.1,0,0.1,0,0.2,0h0.1c0.3,0.5,0.5,0.9,0.6,1.1
			c0.1,0.1,0.3,0.5,0.7,1.1c0.2,0.4,0.4,0.7,0.7,1.1l0.4-0.9c0.4-0.9,0.7-1.8,1-2.7h0.1h0.1h0.1c0.1,0,0.2,0,0.3-0.1
			c0.2,0.9,0.3,1.6,0.4,2.1c0.1,0.5,0.2,0.9,0.3,1.2l0.3,1.2v0.1c0,0.1,0,0.1,0,0.2c-0.1,0-0.2,0-0.3,0s-0.2,0-0.3,0s-0.2,0-0.3,0.1
			s-0.2,0-0.3,0c0-0.5-0.1-1-0.3-1.6c-0.1-0.6-0.3-1.2-0.4-1.7c-0.1,0.4-0.3,0.8-0.4,1.2c-0.1,0.4-0.3,0.8-0.4,1.1
			c-0.1,0.3-0.2,0.6-0.4,1.2c-0.1,0-0.1,0-0.2,0h-0.1l-0.7-1.1c-0.2-0.4-0.4-0.7-0.6-1c-0.2-0.3-0.4-0.7-0.6-1v1.3v0.8v0.7v0.4
			c-0.1,0-0.2,0-0.2,0c-0.1,0-0.1,0-0.1,0c-0.1,0-0.2,0-0.3,0.1v-0.1v-0.1c0-0.1,0-0.3,0.1-0.6c0-0.2,0-0.4,0-0.6c0-0.2,0-0.5,0-0.7
			C143.4,187.5,143.4,187.3,143.4,187.2z"/>
		<path class="st1" d="M152.4,184.5c-0.1-0.3-0.1-0.4-0.1-0.5c0.1,0,0.1-0.1,0.2-0.1h0.1c0.2-0.1,0.4-0.1,0.6,0
			c0.1,0,0.2,0.1,0.2,0.2c0.1,0.1,0.1,0.2,0.2,0.3c0,0.1,0.1,0.3,0.1,0.4c0,0.1-0.1,0.3-0.1,0.4c-0.1,0.1-0.1,0.2-0.3,0.3
			c-0.1,0.1-0.2,0.1-0.4,0.1h-0.1l-0.2-0.7C152.5,184.9,152.5,184.8,152.4,184.5z M154.5,184.8c0.2-0.3,0.2-0.6,0.1-0.9
			c-0.1-0.4-0.4-0.6-0.7-0.7c-0.3-0.1-0.6-0.1-1,0.1l-1,0.3l-0.8,0.2c0.1,0.2,0.2,0.5,0.3,0.9s0.3,0.7,0.3,0.9c0,0,0.1,0.3,0.2,0.8
			c0.1,0.5,0.3,0.9,0.3,1.1c0.1,0.2,0.1,0.3,0.1,0.5c0.1,0.2,0.1,0.3,0.1,0.5l0.6-0.2l1-0.3c0.1,0,0.2-0.1,0.3-0.1s0.1-0.1,0.2-0.1
			c0.2-0.1,0.3-0.2,0.4-0.3c0.1-0.1,0.2-0.2,0.3-0.4c0.2-0.4,0.2-0.7,0.1-1c-0.1-0.3-0.3-0.6-0.6-0.7c-0.1-0.1-0.3-0.1-0.5-0.1
			s-0.3,0-0.5,0.1v-0.1C154.1,185.3,154.3,185.1,154.5,184.8z M152.9,186c0,0,0.1,0,0.1-0.1h0.1c0.3-0.1,0.6-0.1,0.8,0
			s0.4,0.3,0.5,0.7c0.1,0.2,0.1,0.4,0,0.7c0,0.1-0.1,0.2-0.2,0.3c-0.1,0.1-0.2,0.1-0.3,0.2l-0.3,0.1l-0.3-0.9L152.9,186z"/>
		<path class="st1" d="M155.1,182.6L155.1,182.6c0.1-0.1,0.3-0.2,0.5-0.3s0.4-0.2,0.5-0.2c0.2-0.1,0.5-0.2,0.8-0.4s0.6-0.3,0.6-0.3
			c0,0.1,0.1,0.2,0.1,0.3c0,0,0,0.1,0.1,0.1c0,0,0,0.1,0.1,0.1l0.1,0.1c-0.2,0.1-0.4,0.2-0.8,0.3s-0.6,0.2-0.8,0.3l0.3,0.7l0.4,0.7
			l1.4-0.8c0,0.1,0,0.1,0.1,0.2s0,0.1,0.1,0.1c0,0.1,0.1,0.1,0.1,0.1l0.1,0.1c-0.1,0.1-0.3,0.1-0.6,0.3c-0.3,0.1-0.5,0.2-0.6,0.3
			l-0.3,0.1l0.4,0.8l0.4,0.8c0.5-0.2,0.9-0.5,1.5-0.8c0,0.1,0.1,0.2,0.1,0.3c0,0,0,0.1,0.1,0.1s0,0.1,0.1,0.1l0.1,0.1
			c-0.1,0.1-0.3,0.1-0.6,0.3c-0.3,0.1-0.5,0.2-0.6,0.3l-0.8,0.4l-0.6,0.3l-0.2-0.4l-0.6-1.2l-0.5-1l-0.4-0.8
			c-0.1-0.2-0.1-0.3-0.2-0.4C155.2,182.9,155.1,182.6,155.1,182.6z"/>
		<path class="st1" d="M161.6,184.6L161.6,184.6l-0.3,0.2c-0.1,0.1-0.2,0.1-0.3,0.2c-0.3-0.4-0.6-0.9-0.9-1.4
			c-0.4-0.5-0.7-1-1.1-1.5l-0.7-0.9l-0.2-0.3c0.1-0.1,0.2-0.1,0.3-0.2s0.2-0.1,0.2-0.2c0.3,0.1,0.8,0.1,1.5,0.3
			c0.5,0.1,1,0.2,1.5,0.3c0.6,0.1,1.1,0.2,1.5,0.3l-0.9-1.3l-0.5-0.6c-0.1-0.1-0.1-0.2-0.3-0.3c-0.1-0.1-0.2-0.3-0.3-0.3l-0.1-0.1
			c0.1,0,0.1-0.1,0.2-0.1c0.1,0,0.1-0.1,0.1-0.1l0.1-0.1c0.1-0.1,0.1-0.1,0.1-0.1l0.2,0.3c0.1,0.1,0.1,0.2,0.2,0.3
			c0.2,0.3,0.3,0.4,0.3,0.5c0.1,0.2,0.3,0.4,0.4,0.6c0.1,0.2,0.3,0.4,0.4,0.5l0.4,0.6l0.9,1.2h-0.1c-0.1,0-0.1,0.1-0.2,0.1
			c-0.1,0.1-0.1,0.1-0.2,0.2c-0.5-0.1-0.9-0.2-1.1-0.3c-0.4-0.1-0.8-0.2-1.2-0.2c-0.3-0.1-0.7-0.1-1.2-0.2l-1.1-0.2l0.6,0.8l0.4,0.5
			c0.1,0.1,0.3,0.4,0.7,0.9C161.3,184.3,161.5,184.5,161.6,184.6z"/>
		<path class="st1" d="M162.3,177.8L162.3,177.8c0-0.2,0.1-0.3,0.3-0.5s0.3-0.3,0.4-0.4c0.1-0.2,0.4-0.4,0.6-0.7s0.4-0.5,0.5-0.5
			c0.1,0.1,0.1,0.1,0.2,0.2c0,0,0.1,0,0.1,0.1l0.1,0.1l0.1,0.1c-0.1,0.1-0.3,0.3-0.6,0.6s-0.5,0.4-0.6,0.6l0.6,0.5l0.6,0.5l1.1-1.3
			c0.1,0.1,0.1,0.1,0.1,0.1l0.1,0.1l0.1,0.1c0,0,0.1,0,0.1,0.1c-0.1,0.1-0.2,0.3-0.4,0.5s-0.4,0.4-0.5,0.5l-0.3,0.3l0.7,0.6l0.7,0.6
			c0.4-0.4,0.7-0.8,1.1-1.3c0.1,0.1,0.1,0.1,0.2,0.2c0,0,0.1,0,0.1,0.1l0.1,0.1l0.1,0.1c-0.1,0.1-0.3,0.3-0.4,0.5
			c-0.2,0.2-0.4,0.4-0.5,0.5l-0.6,0.6l-0.4,0.5l-0.3-0.3l-1-0.9l-0.8-0.8l-0.6-0.6c-0.1-0.1-0.2-0.2-0.3-0.3
			C162.5,178,162.3,177.8,162.3,177.8z"/>
		<path class="st1" d="M164.6,175.2L164.6,175.2c0-0.2,0.1-0.3,0.3-0.5c0.1-0.2,0.3-0.4,0.3-0.5c0.1-0.2,0.3-0.5,0.5-0.8
			s0.3-0.5,0.4-0.6c0.1,0.1,0.1,0.1,0.2,0.2c0,0,0.1,0,0.1,0.1s0.1,0,0.1,0.1h0.1c-0.1,0.2-0.3,0.4-0.5,0.7s-0.4,0.5-0.5,0.7
			l0.6,0.4l0.7,0.5l0.9-1.4c0.1,0.1,0.1,0.1,0.1,0.1l0.1,0.1c0.1,0,0.1,0.1,0.1,0.1h0.1c-0.1,0.1-0.2,0.3-0.4,0.5s-0.3,0.4-0.4,0.5
			l-0.2,0.3l0.7,0.5l1.3,0.8c0,0.1-0.1,0.1-0.2,0.3s-0.1,0.2-0.2,0.2c0,0.1-0.1,0.2-0.2,0.3c-0.1,0.1-0.1,0.2-0.1,0.2l-0.3-0.3
			l-1.1-0.8l-0.9-0.6l-0.7-0.5c-0.1-0.1-0.3-0.2-0.4-0.2C164.8,175.4,164.6,175.2,164.6,175.2z"/>
		<path class="st1" d="M166.9,171.2c0.1,0.1,0.2,0.1,0.3,0.2c0.3,0.2,0.4,0.3,0.5,0.3c0.1,0.1,0.4,0.2,0.6,0.4
			c0.3,0.2,0.5,0.3,0.6,0.4s0.4,0.2,0.7,0.3s0.5,0.3,0.7,0.3c0.1,0,0.3,0.1,0.6,0.3c0.1,0.1,0.3,0.1,0.4,0.2c0,0.1-0.1,0.2-0.2,0.3
			c-0.1,0.1-0.1,0.2-0.1,0.2c-0.1,0.2-0.2,0.4-0.3,0.6c-0.2-0.1-0.5-0.3-0.9-0.5c-0.8-0.4-1.2-0.7-1.4-0.8l-0.4-0.2l-0.8-0.4
			c-0.1-0.1-0.2-0.1-0.4-0.2c-0.1-0.1-0.3-0.1-0.5-0.2c0-0.1,0.1-0.2,0.2-0.3c0.1-0.1,0.1-0.2,0.1-0.2c0-0.1,0.1-0.2,0.1-0.3
			C166.8,171.3,166.9,171.2,166.9,171.2z"/>
		<path class="st1" d="M172.6,168.1L172.6,168.1l0.6,0.3c0,0.2,0,0.5,0,0.7s-0.1,0.5-0.2,0.7c-0.1,0.2-0.2,0.4-0.2,0.5
			c0,0-0.1,0.1-0.2,0.3c-0.1,0.1-0.1,0.2-0.3,0.3c-0.1,0.1-0.2,0.2-0.3,0.3s-0.2,0.1-0.3,0.2c-0.1,0-0.2,0.1-0.3,0.1
			c-0.3,0.1-0.5,0.1-0.7,0.1c-0.3,0-0.5-0.1-0.8-0.2c-0.4-0.2-0.8-0.4-1-0.6c-0.3-0.2-0.5-0.5-0.6-0.9c-0.1-0.3-0.2-0.7-0.1-1.1
			c0-0.4,0.1-0.7,0.3-1.1c0.1-0.2,0.2-0.5,0.4-0.7s0.3-0.4,0.5-0.6c0.1,0.1,0.2,0.1,0.3,0.2c0.1,0.1,0.2,0.1,0.3,0.2v0.1
			c-0.2,0.1-0.4,0.2-0.6,0.3c-0.2,0.2-0.3,0.4-0.4,0.6c-0.2,0.5-0.1,1,0.2,1.5c0.3,0.4,0.7,0.7,1.3,0.9c0.3,0.1,0.5,0.2,0.8,0.2
			s0.5,0,0.8-0.1c0.2-0.1,0.4-0.2,0.6-0.4c0.2-0.2,0.3-0.4,0.4-0.6c0.1-0.2,0.1-0.4,0.1-0.7C172.7,168.6,172.6,168.4,172.6,168.1z"
			/>
		<path class="st1" d="M169.2,164.7c0.1,0,0.2,0.1,0.3,0.1c0.3,0.1,0.5,0.2,0.6,0.2s0.4,0.1,0.7,0.2c0.3,0.1,0.5,0.2,0.7,0.2
			s0.4,0.1,0.7,0.2c0.3,0.1,0.6,0.1,0.7,0.2c0.1,0,0.3,0.1,0.6,0.1c0.1,0,0.3,0.1,0.4,0.1c0,0.1-0.1,0.2-0.1,0.3s-0.1,0.2-0.1,0.2
			c-0.1,0.2-0.1,0.4-0.1,0.6c-0.3-0.1-0.6-0.2-0.9-0.3c-0.8-0.3-1.4-0.4-1.6-0.5l-0.4-0.1l-0.9-0.2c-0.1,0-0.3-0.1-0.4-0.1
			s-0.3-0.1-0.6-0.1c0-0.1,0.1-0.2,0.1-0.3c0.1-0.1,0.1-0.2,0.1-0.2c0-0.1,0-0.2,0.1-0.3C169.2,164.8,169.2,164.8,169.2,164.7z"/>
		<path class="st1" d="M173.8,163.1c-0.4,0.2-0.8,0.2-1.4,0.1c-0.3,0-0.6-0.1-0.8-0.2c-0.3-0.1-0.5-0.2-0.7-0.3s-0.4-0.3-0.5-0.6
			c-0.1-0.1-0.1-0.3-0.1-0.4c0-0.1,0-0.3,0-0.4c0.1-0.5,0.4-0.9,0.8-1.1c0.4-0.2,0.9-0.2,1.4-0.1c0.3,0,0.5,0.1,0.8,0.2
			c0.2,0.1,0.5,0.2,0.6,0.3c0.2,0.2,0.4,0.4,0.5,0.6c0.1,0.2,0.1,0.5,0.1,0.8C174.5,162.6,174.2,162.9,173.8,163.1z M172.2,158.9
			c-0.2,0-0.4,0-0.6,0.1s-0.4,0.1-0.6,0.2c-0.1,0.1-0.3,0.2-0.5,0.4s-0.4,0.4-0.5,0.7s-0.2,0.6-0.3,0.9c-0.1,0.4-0.1,0.8,0,1.1
			s0.2,0.7,0.4,1s0.4,0.6,0.8,0.8c0.3,0.2,0.6,0.3,1,0.4c0.4,0.1,0.7,0.1,1.1,0s0.6-0.2,0.9-0.4s0.5-0.5,0.7-0.8s0.3-0.7,0.3-1
			c0.1-0.4,0.1-0.8,0-1.1s-0.2-0.7-0.4-1s-0.4-0.6-0.8-0.8s-0.6-0.3-1-0.4C172.6,158.9,172.4,158.9,172.2,158.9z"/>
		<path class="st1" d="M130,169.9v-1.4h-0.1c-0.3,0.2-0.6,0.3-0.9,0.5c-0.1-0.1-0.1-0.1-0.1-0.2c-0.1-0.1-0.1-0.1-0.2-0.2v-0.1
			c0.4-0.1,0.8-0.3,1.2-0.5c0.3-0.1,0.7-0.3,1.2-0.6l0.2,0.1c0,0.3,0,0.8,0,1.2c0,1.1-0.1,1.8-0.1,2.1v0.5c0,0.2,0,0.5,0,0.9
			s0,0.7,0,0.9h-0.1c-0.2,0-0.3,0-0.4,0c-0.1,0-0.1,0-0.2,0c-0.1,0-0.2,0-0.4,0s-0.3,0-0.3,0l0.1-0.6c0-0.4,0-0.9,0-1.5
			C130,170.3,130,170,130,169.9z"/>
		<path class="st1" d="M138,170c-0.1,0.3-0.3,0.4-0.6,0.4c-0.2,0-0.4-0.1-0.5-0.3c-0.1-0.1-0.1-0.4-0.1-0.6v-0.4
			c0-0.3,0-0.6,0.1-0.8c0.1-0.3,0.3-0.5,0.6-0.5s0.5,0.2,0.6,0.5c0.1,0.2,0.1,0.5,0.1,0.9C138.2,169.6,138.1,169.8,138,170z
			 M136.1,172.8c0,0.1,0,0.1,0.1,0.2c0,0.1,0.1,0.1,0.1,0.1h0.1c0.1,0,0.2,0.1,0.2,0.1c0.1,0,0.1,0,0.3,0c0.4,0,0.8-0.1,1.1-0.3
			c0.4-0.2,0.6-0.4,0.9-0.8s0.4-0.7,0.5-1.1c0.1-0.4,0.1-0.8,0.1-1.3c0-0.3,0-0.6-0.1-0.9c-0.1-0.3-0.2-0.5-0.4-0.8
			c-0.2-0.2-0.4-0.4-0.7-0.5s-0.6-0.2-0.9-0.2c-0.3,0-0.5,0-0.7,0.1s-0.4,0.2-0.6,0.4c-0.2,0.2-0.4,0.4-0.4,0.6
			c-0.1,0.2-0.1,0.5-0.1,0.8c0,0.5,0.2,0.8,0.5,1.1s0.7,0.4,1.2,0.4c0.4,0,0.7-0.1,1-0.4h0.1v0.1c0,0.5-0.1,1-0.3,1.4
			c-0.3,0.5-0.6,0.8-1.1,0.8c-0.1,0-0.3,0-0.4-0.1c-0.1,0-0.2-0.1-0.3-0.2l-0.1,0.1C136,172.7,136.1,172.8,136.1,172.8z"/>
		<path class="st1" d="M143.9,169.4c0.3-0.4,0.5-0.7,0.6-0.9h0.1v2.4H143v-0.1C143.4,170.2,143.7,169.7,143.9,169.4z M142.4,171.1
			c0,0.1,0,0.2,0,0.2c0,0.1,0,0.1,0,0.2c0,0,0,0.1,0,0.2h2.2c0,0.3,0,0.5,0,0.8c0,0.2,0,0.4-0.1,0.6c0,0,0.1,0,0.3,0
			c0.1,0,0.3,0,0.4,0c0.1,0,0.2,0,0.3,0s0.2,0,0.3,0h0.1V173v-0.4v-0.9l0.7,0.1c0-0.1,0-0.3,0-0.3s0-0.1,0-0.2c0-0.1,0-0.2,0-0.3
			s0-0.1,0-0.2l-0.7,0.1v-1.6v-0.8c0,0,0-0.2,0-0.6c0-0.1,0-0.2,0-0.4c-0.2,0-0.3,0.1-0.5,0.1c-0.1,0-0.2,0-0.3,0s-0.2,0-0.2,0h-0.1
			c-0.1,0.2-0.3,0.4-0.5,0.7c-0.1,0.2-0.3,0.4-0.5,0.7l-0.6,0.9L142.4,171.1C142.4,171,142.4,171.1,142.4,171.1z"/>
		<path class="st1" d="M150.7,170.7c0.1-0.3,0.3-0.4,0.6-0.4s0.5,0.2,0.6,0.5c0.1,0.2,0.1,0.5,0.1,0.8s0,0.6-0.1,0.8
			c-0.1,0.3-0.3,0.5-0.6,0.5s-0.5-0.2-0.6-0.5c-0.1-0.2-0.1-0.5-0.1-0.9C150.6,171.1,150.6,170.9,150.7,170.7z M152.4,167.6
			c-0.1,0-0.3,0-0.4,0h-0.1c-0.1,0-0.2,0-0.4,0.1c-0.2,0-0.3,0.1-0.5,0.1c-0.2,0.1-0.3,0.1-0.4,0.3c-0.4,0.3-0.7,0.8-0.9,1.3
			s-0.3,1-0.3,1.6c0,0.3,0,0.6,0.1,0.8c0.1,0.3,0.2,0.5,0.3,0.8c0.1,0.2,0.4,0.4,0.6,0.5c0.1,0.1,0.3,0.1,0.4,0.1
			c0.2,0,0.3,0.1,0.5,0.1c0.6,0,1-0.2,1.4-0.5s0.6-0.8,0.6-1.3s-0.2-0.9-0.5-1.2s-0.7-0.4-1.2-0.4c-0.4,0-0.7,0.1-0.9,0.4h-0.1
			c0-0.3,0-0.5,0.1-0.8c0-0.1,0.1-0.3,0.1-0.5c0.1-0.2,0.1-0.4,0.3-0.5c0.1-0.2,0.3-0.3,0.4-0.4c0.2-0.1,0.4-0.2,0.5-0.2
			s0.2,0,0.3,0s0.2,0,0.2,0.1l0.1-0.1C152.5,167.8,152.5,167.7,152.4,167.6z"/>
		<path class="st1" d="M78.3,134.8c1.9,0,3.4-1.5,3.4-3.4s-1.5-3.4-3.4-3.4s-3.4,1.5-3.4,3.4S76.5,134.8,78.3,134.8z"/>
		<path class="st1" d="M204,133.7c1.9,0,3.4-1.5,3.4-3.4s-1.5-3.4-3.4-3.4s-3.4,1.5-3.4,3.4C200.6,132.2,202.1,133.7,204,133.7z"/>
		<polygon class="st1" points="80.7,105.9 84.2,101.3 83.2,100.6 84.6,98.7 85.6,99.4 89.2,94.7 90.6,95.7 82.2,107 		"/>
		<g>
			<polygon class="st1" points="92.5,103.9 90.1,102.3 88.4,104.5 90.8,106.1 			"/>
		</g>
		<g>
			<polygon class="st1" points="96,99.3 94.5,98.3 86,109.8 87.4,110.8 			"/>
		</g>
		<path class="st1" d="M89,105c-1.8,1.9-3.9,2.7-5.1,1.9c-1.4-0.9-1-3.8,1-6.4c1.9-2.6,4.7-4,6.1-3c1.2,0.8,1.1,2.9-0.1,5.1
			 M88.6,102.9c1-1.3,1.3-2.7,0.7-3.2c-0.6-0.4-1.9,0.3-2.9,1.7c-1,1.3-1.3,2.7-0.7,3.2C86.3,105,87.6,104.3,88.6,102.9z"/>
		<path class="st1" d="M89.9,111.3c-1.7-1.1-1.3-4.3,0.7-7.1c2.1-2.8,5.1-4.2,6.8-3c1.7,1.1,1.3,4.3-0.7,7.1
			C94.6,111,91.6,112.4,89.9,111.3z M95.2,107.2c1.3-1.7,1.6-3.7,0.7-4.3c-0.9-0.6-2.7,0.3-4,2s-1.6,3.6-0.7,4.3
			S93.9,109,95.2,107.2z"/>
		<g>
			<polygon class="st1" points="117.7,83.9 113.6,78 111.7,79.2 115.8,85.1 			"/>
		</g>
		<polygon class="st1" points="108.4,90.5 118.1,84.4 121.4,89 119.3,90.3 117.1,87.1 109.4,92 		"/>
		<path class="st1" d="M105.6,87.1c-1.2-1.7-0.7-4.1,1.1-5.2s4.3-0.7,5.5,1.1c1.2,1.7,0.7,4.1-1.1,5.2
			C109.3,89.3,106.8,88.8,105.6,87.1z M110,86.6c0.8-0.5,0.9-1.6,0.3-2.5s-1.7-1.2-2.5-0.7s-0.9,1.6-0.3,2.4
			C108.1,86.8,109.2,87.1,110,86.6z"/>
		<g>
			<polygon class="st1" points="140.5,72.5 134.8,72.5 134.8,85.8 144,85.8 144,79.1 144.8,79.1 144.8,85.8 147.2,85.8 147.2,72.5 
				144.8,72.5 144.8,77.2 144,77.2 144,72.5 141.6,72.5 141.6,84.1 136.9,84.1 136.9,74 140.5,74 			"/>
		</g>
		<g>
			<polygon class="st1" points="194.1,95.3 201.1,104.9 191.1,111.4 191.9,112.5 190.4,113.5 182.3,102.5 183.8,101.5 185.3,103.4 
				191.6,99.3 193,101.3 186.7,105.4 187.3,106.3 193.6,102.1 195,104 188.7,108.2 189.6,109.5 198.1,104 192.5,96.3 			"/>
		</g>
		<polygon class="st1" points="169.6,77.6 175.6,81.5 174.8,82.6 168.8,78.8 		"/>
		<polygon class="st1" points="167.2,78.7 175.5,83.9 174.5,85.3 166.3,80.2 		"/>
		<polygon class="st1" points="177.3,82.6 179.6,84 177.2,87.5 178.5,88.3 177.3,89.9 176.1,89.1 174.9,90.7 172.7,89.3 		"/>
		<polygon class="st1" points="164.1,84.6 174.6,91.3 172,95.1 169.7,93.6 171.2,91.4 162.9,86.2 		"/>
		<path class="st1" d="M166.3,82.1c1-1.4,3.2-1.6,4.9-0.5s2.4,3.1,1.4,4.5s-3.2,1.6-4.9,0.5S165.3,83.5,166.3,82.1z M168.4,85.6
			c0.7,0.4,1.7,0.1,2.3-0.7s0.5-1.8-0.2-2.3s-1.7-0.1-2.3,0.7S167.7,85.1,168.4,85.6z"/>
		<path class="st1" d="M73,156.6l11.5-3.4l0.5,1.6l-4.8,1.4l1.8,6l4.8-1.4l0.5,1.6l-11.5,3.4l-0.5-1.6l5.4-1.6l-1.8-6l-5.4,1.6
			L73,156.6z"/>
		<path class="st1" d="M80.3,170.2c0.5-1,1.3-1.8,2.5-2.4c1.5-0.8,2.8-1,3.9-0.7s1.9,1,2.5,2.1s0.7,2.2,0.2,3.3s-1.3,1.9-2.5,2.5
			s-2.4,0.9-3.6,0.8c-1.2-0.1-2.1-0.8-2.8-2.1C79.9,172.4,79.8,171.2,80.3,170.2z M86.4,165.4c-1.4-0.2-2.8,0.1-4.3,0.8
			c-1.6,0.8-2.7,1.9-3.3,3.3c-0.6,1.5-0.5,3.1,0.3,4.7c0.9,1.8,2.2,2.8,3.9,3.1c1.5,0.3,3,0,4.6-0.8c1.5-0.8,2.5-1.7,3.1-2.9
			c0.8-1.5,0.7-3.2-0.3-5.1C89.5,166.7,88.2,165.6,86.4,165.4z"/>
		<path class="st1" d="M85.1,183.4l7.7-6l-3.9,10.8l1.1,1.4l9.4-7.4l-0.9-1.2l-7.7,6l3.9-10.7l-1.2-1.5l-9.4,7.4L85.1,183.4z"/>
		<path class="st1" d="M100.6,185.5c-1.6,0.2-3.1,1.1-4.3,2.6c-1.3,1.5-1.9,3.1-1.8,4.7c0.2,1.4,0.8,2.5,1.9,3.4
			c0.8,0.7,1.7,1.1,2.5,1.3c0.5,0.1,1.1,0.1,1.9,0l-0.7,1.4l0.8,0.7l4.2-4.9l-4-3.4l-0.9,1l2.9,2.4c-0.9,1.1-1.9,1.6-2.8,1.6
			s-1.8-0.3-2.7-1c-1.1-0.9-1.6-1.9-1.5-3s0.6-2.2,1.5-3.3c1.1-1.3,2.2-2,3.3-2.1c1.1-0.1,2.1,0.1,2.9,0.9c0.7,0.6,1.2,1.3,1.4,2
			c0.2,0.7,0.1,1.4-0.3,2.3l1.2,1c0.8-1.4,1-2.7,0.5-3.9c-0.3-0.9-0.9-1.7-1.8-2.4C103.5,185.7,102.1,185.3,100.6,185.5z"/>
		<path class="st1" d="M105.6,202.3l6.5-10.1l-1.4-0.9l-6.5,10L105.6,202.3z"/>
		<path class="st1" d="M108.1,203.7l5.7-10.5l1.4,0.8l-2.8,5.1l7.9-2.3l2,1.1l-6.7,1.9l1.1,8.7l-1.8-1l-0.8-7.3l-2.6,0.7l-2,3.7
			L108.1,203.7z"/>
		<g>
			<path class="st1" d="M126.8,205.3c-0.3,1.5-0.3,2.6,0,3.4c0.5,1.6,1.7,2.5,3.7,2.8c2,0.4,3.5-0.1,4.4-1.4
				c0.5-0.7,0.9-1.8,1.2-3.3l1.1-6.6l-1.6-0.3l-1.3,7.3c-0.1,0.9-0.4,1.5-0.7,2c-0.6,0.8-1.6,1.1-3,0.9c-1.1-0.2-1.9-0.8-2.2-1.7
				c-0.2-0.6-0.3-1.4-0.1-2.2l1.3-7.3l-1.6-0.3L126.8,205.3z"/>
			<path class="st1" d="M140.8,212.4l-0.2-9.7l6.4,9.6h1.8l-0.3-12H147l0.2,9.7l-6.3-9.6H139l0.3,12H140.8z"/>
			<path class="st1" d="M154.4,211.2l-2.1-11.8l-1.6,0.3l2.1,11.8L154.4,211.2z"/>
			<path class="st1" d="M153.7,199.4l1.7-0.6l6.4,8.7l0.1-10.8l1.7-0.6l-0.5,12.8l-1.6,0.5L153.7,199.4z"/>
			<path class="st1" d="M178,202l-0.7-1.3l-6.4,3.5l-1.9-3.6l5.8-3.1l-0.7-1.2l-5.8,3.1l-1.7-3.2l6.3-3.4l-0.7-1.3l-7.7,4.2
				l5.7,10.5L178,202z"/>
			<path class="st1" d="M175.8,190.6l3.1-2.5c0.4-0.3,0.8-0.6,1.2-0.6c0.7-0.1,1.3,0.1,1.8,0.8c0.5,0.6,0.7,1.2,0.5,1.7
				c-0.1,0.5-0.5,1-1.1,1.5l-2.9,2.4L175.8,190.6z M182.4,198.9l-3.2-4l2.9-2.3c0.5-0.4,0.9-0.7,1.3-0.7c0.6-0.1,1.1,0.1,1.7,0.7
				l1.3,1.5c0.3,0.4,0.5,0.6,0.7,0.7c0.1,0.1,0.3,0.2,0.4,0.2l1.6-1.3l-0.2-0.2c-0.3,0.1-0.6,0-0.9-0.2c-0.2-0.1-0.4-0.4-0.7-0.7
				l-1.1-1.2c-0.5-0.5-0.9-0.8-1.3-0.9c-0.4-0.1-0.8-0.1-1.3,0.1c0.2-0.6,0.3-1.1,0.3-1.6c-0.1-0.5-0.3-1.1-0.8-1.6
				c-0.9-1.1-1.9-1.5-3.1-1.1c-0.6,0.2-1.3,0.5-2,1.1l-4.3,3.5l7.5,9.3L182.4,198.9z"/>
			<path class="st1" d="M191.2,190.1c1.1-0.1,2.2-0.8,3.2-1.9c0.8-1,1.4-2,1.6-3.1s-0.2-2.1-1.2-3c-0.8-0.7-1.7-0.9-2.6-0.7
				c-0.5,0.1-1.1,0.4-1.8,0.9l-1.4,1c-0.9,0.7-1.6,1.1-1.9,1.2c-0.5,0.2-1,0.1-1.4-0.3c-0.4-0.4-0.6-0.8-0.6-1.4
				c0-0.6,0.3-1.2,0.9-1.9c0.8-0.9,1.6-1.3,2.4-1.3c0.4,0,0.9,0.2,1.4,0.6l1-1.1c-1-0.9-2-1.2-3.1-0.9c-1,0.3-2,0.9-2.8,1.8
				c-0.9,1-1.3,2.1-1.3,3.1s0.5,1.9,1.3,2.6c0.8,0.6,1.6,0.9,2.4,0.6c0.5-0.1,1.2-0.5,2.1-1.2l1.3-1c0.7-0.5,1.3-0.9,1.8-1
				s1,0,1.4,0.5c0.7,0.6,0.8,1.3,0.4,2.3c-0.2,0.5-0.5,1-0.9,1.4c-0.9,1-1.8,1.5-2.8,1.4c-0.5-0.1-1-0.3-1.6-0.7l-1,1.1
				C189,189.9,190.1,190.3,191.2,190.1z"/>
			<path class="st1" d="M200,180.2l-9.9-6.8l-0.9,1.4l9.9,6.8L200,180.2z"/>
			<path class="st1" d="M191,172.5l4.5-8.6l1.3,0.7l-1.9,3.6l9.4,4.9l-0.8,1.5l-9.4-4.9l-1.9,3.6L191,172.5z"/>
			<path class="st1" d="M208.3,163.4l0.5-1.6l-4.6-1.5l-5.4-6.5l-0.6,1.8l4.4,5l-6.5,1.5l-0.6,1.8l8.2-2.1L208.3,163.4z"/>
		</g>
	</g>
	<g>
		<polygon class="st1" points="124.6,122.8 124.6,111.5 149.6,111.5 149.6,115.2 150.3,115.2 150.3,110.8 123.9,110.8 123.9,123.5 
			133.2,123.5 133.2,122.8 		"/>
		<g>
			<g>
				<g>
					<g>
						<path class="st1" d="M148.7,134.2l-0.3,0.3c0,0.7,0.1,1.5-0.1,2.1c-0.2,0.3-0.6,0.3-1,0.2c-0.2-0.1-0.1-0.3-0.1-0.5H146
							l-0.1,1.3c0.7-0.1,1.4,0.3,1.8-0.4c0.4,0.3,1.1,0.6,1.1,1.1c-0.1,0.2-0.3,0.2-0.5,0.3c-0.1,0.6-0.1,1.3-0.3,1.9
							c0.3,0.1,0.6,0.1,0.9,0c0.6-2.4,0.9-4.8,1.1-7.3c0.7,0.1,1.4,0.1,2.1,0.4c0.1,0.2-0.2,0.3-0.3,0.3h-0.1
							c-0.6,2.3-1.3,4.4-2.1,6.6v0.1l2.4-0.2c0.1-1-0.4-1.9-0.8-2.9c0.3,0,0.6,0.3,0.9,0.5c1,0.9,1.6,2.1,1.4,3.5
							c-0.1,0.3-0.3,0.6-0.6,0.7c-0.2,0.1-0.5,0-0.7-0.1c-0.3-0.3-0.3-0.8-0.3-1.2c-1,0.3-2,0.7-3.1,1.1c-0.1,0.1-0.1,0.4-0.3,0.3
							c-0.2-0.4-0.3-0.9-0.5-1.3c-0.2,0.6-0.6,1.3-1.3,1.4c-0.2,0-0.6,0.1-0.7-0.2c-0.1-0.3,0-0.8-0.5-0.9c-0.2-0.1-0.4-0.1-0.6-0.3
							c0.6-0.1,1.5,0.4,1.8-0.4c0.3-0.8,0.2-1.6,0.3-2.4c-0.4-0.1-0.9-0.1-1.3-0.1c0,0.3-0.1,0.5-0.4,0.6c-0.3,0.1-0.5,0.1-0.8,0.1
							c-0.2-0.3,0-0.7,0-1c0.1-0.8,0.2-1.6,0.3-2.4l1.1,0.5h1.1c0.1-0.6,0-1.2,0-1.8h-2.8c0-0.1-0.1-0.4-0.1-0.5h3l0.6-0.6
							C148,133.4,148.8,133.6,148.7,134.2z"/>
					</g>
					<path class="st1" d="M151.9,143.6c-0.2,0.2-0.6,0-0.9,0.1c0.4,0.6,1,0.8,1.6,1.1l1.1,0.3c0,0.3-0.5,0.3-0.5,0.7
						c-0.1,0.2-0.1,0.5-0.1,0.7c-0.6-0.2-1.1-0.7-1.6-1.1l-0.2,0.1H147c0-0.1-0.1-0.3-0.1-0.4h3.2c0.3-0.2,0.5-0.9,0.9-0.3
						c0,0,0,0.1,0.1,0.1c-0.2-0.4-0.4-0.6-0.6-1h-2.2l-0.3-0.4h2.3l0.7-0.7C151.3,143,151.7,143.2,151.9,143.6z"/>
					<path class="st1" d="M148,143.9c0,0.3-0.4,0.2-0.5,0.4c-0.8,0.9-1.9,1.8-3,2.2l-0.1-0.1c0.9-1,1.7-2.1,2.1-3.3
						C147,143.4,147.5,143.6,148,143.9z"/>
					<path class="st1" d="M152,146.8c0,0.3-0.3,0.2-0.4,0.2c-0.1,0-0.3,0-0.4,0c0.6,0.9,1.7,1.2,2.7,1.4c0,0.3-0.4,0.4-0.4,0.6
						c-0.1,0.2-0.1,0.5-0.2,0.8c-0.4,0.1-0.6-0.8-0.9-0.1v2.1c0.2-0.2,0.4-0.5,0.6-0.7c0.4,0.4,0.9,0.7,1.1,1.1l-0.3,0.2h-9
						c-0.1,0-0.1-0.4-0.2-0.4h1.5v-3c-0.5,0.3-1,0.7-1.5,0.8v-0.1c0.9-1,1.7-2,2.1-3.2c0.5,0.2,1,0.5,1.5,0.8
						c-0.1,0.2-0.3,0.2-0.5,0.3c-0.3,0.4-0.7,0.7-1,1.1l0.7,0.2h3.7l0.5-0.4c-0.3-0.4-0.6-0.9-0.9-1.4l-0.1-0.1h-2.2
						c-0.1-0.1-0.1-0.3-0.1-0.4h2.3l0.6-0.6C151.3,146.3,151.7,146.5,152,146.8z M147.6,149.2h-0.4v2.8h0.4V149.2z M149.3,149.2
						h-0.4c0.1,0.1,0,0.3-0.1,0.4v2.4h0.5V149.2L149.3,149.2z M151,149.2h-0.3l0.1,0.2c-0.1,0.1-0.1,0.1-0.2,0.2v2.4h0.4V149.2
						L151,149.2z"/>
					<g>
						<path class="st1" d="M133.5,133c0.1,0.2-0.2,0.3-0.3,0.4c-0.1,3,1.6,5.9,4.4,7.3c0,0.3-0.2,0-0.7,0.3
							c-0.3,0.2-0.4,0.8-0.6,0.8c-0.7-0.2-1.2-1-1.7-1.5c-1.2-1.6-1.5-3.5-1.7-5.5c-0.3,2.7-1,5.8-3.9,6.9c-0.4,0.1-0.8,0.3-1.3,0.2
							v-0.1c3.4-1.7,3.8-5.6,3.7-9.2C132.1,132.8,132.9,132.8,133.5,133z"/>
					</g>
					<path class="st1" d="M129.8,143.9c0.5,0,1.6,0.2,1.9-0.6c0.4,0.2,0.9,0.5,1.1,0.9c0.1,0.3-0.2,0.3-0.4,0.4v2.4
						c-0.1,0.3-0.6,0.3-0.9,0.3c-0.1,0-0.3-0.1-0.3-0.2c0-0.1,0.1-0.3-0.1-0.3h-1.4l-0.1,0.1v5.4c-0.1,0.3-0.6,0.3-0.9,0.3
						c-0.2,0-0.3-0.1-0.3-0.3v-9.2L129.8,143.9z M131.2,145.1v-0.8h-1.4v0.8H131.2z M131.2,146.4v-0.8h-1.4v0.8H131.2z"/>
					<path class="st1" d="M135.9,143.9l0.4-0.6c0.4,0.3,0.9,0.5,1.2,1c0,0.3-0.3,0.3-0.4,0.4v7.4c-0.1,0.5-0.6,0.6-1.1,0.6
						c-0.2,0.1-0.3-0.1-0.3-0.2V152c-0.3-0.3-0.7-0.3-1.1-0.5c-0.3,0.2-0.7,0.3-1.1,0.2c-0.2-0.2-0.1-0.5-0.1-0.8L132,151
						c-0.1,0.4,0.1,1-0.5,1.1c-0.2,0-0.5,0.1-0.7,0l-0.1-0.2v-4.5c0.4,0.1,0.8,0.3,1.2,0.5h1.5l0.3-0.4c-0.2,0-0.5-0.1-0.6-0.2v-3.9
						l1.3,0.6L135.9,143.9L135.9,143.9z M135.8,145.2v-0.8h-1.4v0.8H135.8z M135.8,146.5v-0.8h-1.4v0.8H135.8z M133.5,149.2v-0.8
						h-1.4v0.8H133.5z M133.5,150.5v-0.8h-1.4v0.8H133.5z M134.1,147.4c0,0,0.3,0.1,0.5,0.3c0.7,0.6,0.1,0.8,0.1,0.8v2.7
						c0,0,0.4,0,0.7,0.1c0.4,0.1,0.4-0.2,0.4-0.2V147h-1.5C134.5,147.1,134.1,147.4,134.1,147.4z"/>
				</g>
				<polygon class="st1" points="158.7,115.2 158.7,127.3 133.2,127.3 133.2,123.5 150.3,123.5 150.3,115.2 				"/>
			</g>
			<path class="st1" d="M133.2,115.2h16.4v7.6h-16.4V115.2z M146.8,117.8h-5.3v-1.5h-0.7v1.5H136v0.7h4.8c-0.9,2-4.8,2.3-4.8,2.3
				l0.1,0.7c4.3-0.3,5.2-2.4,5.2-2.4c1.2,2.3,5.4,2.5,5.4,2.5v-0.7c-3.5-0.3-4.6-1.6-5-2.3h5.1V117.8L146.8,117.8z"/>
		</g>
	</g>
	<g>
		<path class="st1" d="M102.8,152.7c1.2,1.1,1.8,3.4,1.8,3.4l0.7-0.2c0-0.1-0.7-2.6-2-3.8L102.8,152.7z"/>
		<path class="st1" d="M105.8,149.4c0,0.1,0.9,2.6,2.7,4.5l0.5-0.5c-1.7-1.7-2.6-4.1-2.6-4.2L105.8,149.4z"/>
		<path class="st1" d="M102,129.2c-1.7,0.1-3.2,0.8-4.3,2c-2.7,3.1-1.1,6.2,0.1,7.4c0.9,0.9,3.6,2.1,6,0.1c0.7-0.6,1.1-1.4,1.2-2.4
			c0-0.9-0.3-1.8-0.9-2.3c-0.5-0.5-1.3-0.7-2-0.6c-0.6,0.1-1.1,0.4-1.4,1l0.6,0.4c0.2-0.3,0.5-0.6,0.9-0.6c0.6-0.1,1.1,0.2,1.4,0.4
			c0.4,0.4,0.7,1.1,0.7,1.8s-0.3,1.4-0.9,1.9c-2.2,1.9-4.6,0.3-5,0c-1.1-1.1-2.4-3.8-0.1-6.5c0.9-1.1,2.3-1.7,3.8-1.8
			c2.2-0.1,4.6,1,6.6,3c3.1,3,3.1,7.9,3.1,10.8c0,3-1.7,11.2-6.9,12.1c-1.3,0.2-2.3,0-3.2-0.6c-1-0.7-1.5-1.9-1.6-2.7
			c-0.2-1.5,0.3-2.8,1.3-3.7c0.9-0.7,2.1-1,3-0.6s1.6,1.3,1.7,2.2c0.1,0.8-0.3,1.4-0.9,1.8c-0.5,0.3-1,0.4-1.4,0.3
			c-0.4-0.1-0.7-0.4-0.8-0.7l-0.7,0.3c0.3,0.6,0.7,1,1.3,1.1c0.4,0.1,1.2,0.2,2-0.3c0.9-0.5,1.3-1.4,1.2-2.4
			c-0.1-1.2-0.9-2.3-2.1-2.8c-1.1-0.5-2.6-0.2-3.8,0.7c-1.3,1-1.9,2.6-1.6,4.4c0.2,1.2,0.9,2.4,1.9,3.1c1,0.8,2.3,1,3.8,0.8
			c5.7-1,7.5-9.5,7.5-12.5c0-3.3,0-8.3-3.3-11.5C107,130.2,104.4,129.1,102,129.2z"/>
		<path class="st1" d="M68.2,142.4c0,40.3,32.8,73.1,73.1,73.1s73.1-32.8,73.1-73.1s-32.8-73.2-73.1-73.2S68.2,102,68.2,142.4z
			 M68.9,142.4c0-39.9,32.5-72.4,72.4-72.4s72.4,32.5,72.4,72.4s-32.5,72.4-72.4,72.4S68.9,182.3,68.9,142.4z"/>
		<path class="st1" d="M86.3,142.4c0,30.4,24.7,55.1,55.1,55.1s55.1-24.7,55.1-55.1s-24.7-55.1-55.1-55.1
			C111,87.3,86.3,112,86.3,142.4z M87,142.4c0-30,24.4-54.4,54.4-54.4s54.4,24.4,54.4,54.4s-24.4,54.4-54.4,54.4
			C111.4,196.8,87,172.4,87,142.4z"/>
		<path class="st1" d="M110.5,105.9c-2.2,1.1-3.6,3.2-4.3,6.2l-0.4,2c-0.4,2.4-1,5.3-2.4,8.4c-1.3,2.8-2.7,4.7-4,6.4l-1.7,2.3
			l0.6,0.4l1.7-2.3c1.3-1.7,2.8-3.7,4.1-6.5c1.5-3.2,2-6.2,2.4-8.6l0.4-1.9c0.6-2.8,1.9-4.7,3.9-5.7c1.6-0.8,3.6-0.7,5.3,0.1
			c1.4,0.7,2.4,1.9,2.7,3.4c0.4,2-0.1,4.1-1.3,5.4c-1,1.1-2.4,1.6-4.1,1.4c-2.4-0.3-3.2-1.9-3.1-3.3c0-1.4,0.9-3,2.5-3.1
			c1.1-0.1,1.7,0.4,1.9,0.9c0.4,0.6,0.4,1.5,0,2.1l0.6,0.4c0.5-0.8,0.5-2,0-2.8c-0.5-0.9-1.4-1.3-2.6-1.3c-2,0.1-3.2,2.1-3.2,3.8
			c-0.1,1.7,0.9,3.8,3.8,4.1c2.4,0.3,3.9-0.7,4.7-1.6c1.4-1.5,2-3.9,1.5-6.1c-0.4-1.7-1.5-3.1-3.1-3.9
			C114.6,105.1,112.3,105.1,110.5,105.9z"/>
		<path class="st1" d="M128.8,92.4l-1.2,1.2c-1,1.1-2.7,3.1-5.8,5.4c-3.5,2.7-7.6,5-10.1,6.3l-1.7,1l0.4,0.6l1.7-0.9
			c2.5-1.4,6.6-3.6,10.2-6.4c3.1-2.4,4.8-4.3,5.8-5.5l1-1c0.5-0.3,2.3-0.7,4,0.7c0.9,0.7,1.4,1.6,1.3,2.5c0,0.8-0.4,1.5-1.2,2
			c-2,1.3-4.3,3.4-7.4,6.4c-2.5,2.4-4.9,6-6.6,8.5l-1,1.5l0.6,0.4l1-1.5c1.7-2.6,4.1-6.1,6.5-8.4c3.1-3,5.4-5.1,7.3-6.4
			c0.9-0.6,1.5-1.5,1.5-2.6s-0.6-2.3-1.6-3.1C131.6,91.6,129.6,92,128.8,92.4z"/>
		<path class="st1" d="M111.3,110.2l0.3,0.6c0.2-0.1,3.9-2.1,5.4-3.9l-0.6-0.5C115.1,108.1,111.4,110.1,111.3,110.2z"/>
		<path class="st1" d="M114.8,113.5l0.7,0.3c0,0,0.7-1.6,3.8-4l-0.4-0.6C115.6,111.7,114.8,113.4,114.8,113.5z"/>
		<path class="st1" d="M100.9,134l0.6,0.4c0.1-0.1,1.9-2.5,2.4-4.5l-0.7-0.2C102.7,131.7,100.9,134,100.9,134z"/>
		<path class="st1" d="M104.3,136.7l0.7,0.1c0,0,0.4-2.6,2.8-5l-0.5-0.5C104.7,133.9,104.3,136.6,104.3,136.7z"/>
		<path class="st1" d="M165.6,106.1c-1.7,0.8-2.8,2.2-3.1,3.9c-0.4,2.2,0.1,4.6,1.5,6.1c0.8,0.9,2.3,1.9,4.7,1.6
			c2.9-0.3,3.8-2.4,3.8-4.1c-0.1-1.8-1.2-3.7-3.2-3.8c-1.1-0.1-2.1,0.4-2.6,1.3s-0.5,2,0,2.8l0.6-0.4c-0.4-0.6-0.3-1.5,0.1-2.1
			c0.3-0.4,0.8-1,1.9-0.9c1.6,0.1,2.5,1.7,2.5,3.1s-0.8,3.1-3.1,3.3c-1.7,0.2-3.1-0.3-4.1-1.4c-1.2-1.3-1.8-3.5-1.3-5.4
			c0.3-1.5,1.3-2.7,2.7-3.4c1.7-0.8,3.8-0.9,5.3-0.1c2,1,3.3,2.9,3.9,5.7l0.4,1.9c0.4,2.4,1,5.4,2.4,8.6c1.3,2.9,3.1,5.2,4.5,7.1
			l1.7,2.4l0.6-0.4l-1.7-2.4c-1.5-2-3.1-4.2-4.4-7c-1.4-3.1-1.9-6.1-2.4-8.4l-0.4-2c-0.7-3-2.1-5.1-4.3-6.2
			C169.8,105.2,167.4,105.2,165.6,106.1z"/>
		<path class="st1" d="M148.5,93.2c-1.1,0.8-1.7,2-1.6,3.1c0,1,0.6,1.9,1.5,2.6c1.9,1.3,4.2,3.4,7.3,6.4c2.2,2.1,4.3,5.1,5.9,7.5
			l1.6,2.3l0.6-0.4l-1.6-2.2c-1.7-2.4-3.8-5.5-6-7.6c-3.1-3-5.5-5.1-7.4-6.4c-0.8-0.5-1.2-1.2-1.2-2c0-0.9,0.5-1.8,1.3-2.5
			c1.7-1.3,3.5-0.9,4-0.7l1,1c1,1.2,2.8,3.1,5.9,5.5c3.6,2.8,7.7,5.1,10.2,6.4l1.6,0.9l0.4-0.6l-1.7-0.9c-2.5-1.3-6.6-3.6-10.1-6.3
			c-3.1-2.4-4.7-4.3-5.8-5.4l-1.2-1.2C152.5,92.1,150.5,91.7,148.5,93.2z"/>
		<path class="st1" d="M165,107c1.5,1.8,4.8,3.6,5,3.7l0.4-0.6c0,0-3.4-1.8-4.8-3.5L165,107z"/>
		<path class="st1" d="M162.8,109.9c3.1,2.3,3.8,3.9,3.8,4l0.7-0.3c0-0.1-0.8-1.8-4-4.3L162.8,109.9z"/>
		<path class="st1" d="M172.9,132.5c-3.3,3.2-3.3,8.3-3.3,11.3c0,3.2,1.8,11.8,7.5,12.8c1.4,0.2,2.7,0,3.8-0.8
			c1-0.7,1.7-1.9,1.9-3.1c0.3-1.8-0.3-3.3-1.6-4.4c-1.1-0.9-2.6-1.2-3.8-0.7s-2,1.6-2.1,2.8c-0.1,1,0.4,1.9,1.2,2.4
			c0.9,0.5,1.6,0.5,2,0.3c0.6-0.2,1-0.6,1.3-1.1l-0.7-0.3c-0.2,0.4-0.5,0.6-0.8,0.7c-0.4,0.1-0.9,0-1.4-0.3c-0.6-0.4-1-1-0.9-1.8
			c0.1-0.9,0.7-1.8,1.7-2.2c0.9-0.4,2.1-0.1,3,0.6c1.1,0.9,1.6,2.2,1.3,3.7c-0.1,0.8-0.6,1.9-1.6,2.7c-0.9,0.6-2,0.9-3.2,0.6
			c-5.2-0.9-6.9-9.1-6.9-11.8c0-3.1,0-8,3.1-11c2.1-2,4.4-3.1,6.6-3c1.5,0.1,2.8,0.7,3.8,1.8c2.4,2.7,1,5.4-0.1,6.5
			c-0.4,0.4-2.8,1.9-5,0.1c-0.6-0.5-0.9-1.1-0.9-1.9c0-0.7,0.2-1.4,0.6-1.8c0.3-0.3,0.9-0.6,1.5-0.5c0.5,0.1,0.9,0.5,1.1,1.2
			l0.7-0.2c-0.4-1.2-1.1-1.6-1.6-1.7c-0.8-0.2-1.7,0.2-2.1,0.7c-0.6,0.6-0.9,1.4-0.9,2.3c0,0.9,0.5,1.8,1.2,2.4
			c2.4,2.1,5.2,0.7,6-0.1c1.2-1.2,2.8-4.3,0.1-7.4c-1.1-1.2-2.6-1.9-4.3-2C177.6,129.2,175.1,130.3,172.9,132.5z"/>
		<path class="st1" d="M178,129.9c0.6,2.1,2.3,4.4,2.4,4.5l0.6-0.4c0,0-1.7-2.4-2.3-4.3L178,129.9z"/>
		<path class="st1" d="M174.3,131.9c2.4,2.4,2.8,5,2.8,5l0.7-0.1c0-0.1-0.4-2.8-2.9-5.4L174.3,131.9z"/>
		<path class="st1" d="M176.7,156.1l0.7,0.2c0,0,0.6-2.4,1.8-3.4l-0.5-0.5C177.4,153.6,176.8,156,176.7,156.1z"/>
		<path class="st1" d="M173,153.4l0.5,0.5c1.9-1.9,2.7-4.4,2.7-4.4l-0.7-0.2C175.6,149.3,174.7,151.7,173,153.4z"/>
		<path class="st1" d="M132.7,99.3c0.1,0.1,3.8,2.1,8,2.1c5.9,0,8.5-2.1,8.6-2.2l-0.5-0.6c0,0-2.5,2-8.1,2c-4.1,0-7.6-2-7.6-2
			L132.7,99.3z"/>
		<path class="st1" d="M176.5,165.3l-0.2,0.8c-1.4,6.4-5.8,26-34.9,26c-29.3,0-34.1-20-35.7-26.6l-0.2-1c-1.3-5-4.5-10.2-4.6-10.2
			l-0.6,0.4c0,0.1,3.2,5.1,4.5,10l0.2,1c1.6,6.7,6.5,27.1,36.4,27.1c19.7,0,31.7-8.9,35.6-26.6l0.2-0.8c1.1-4.4,2.4-7.1,5-11.3
			l-0.6-0.4C179,158,177.5,160.8,176.5,165.3z"/>
		<path class="st1" d="M157.9,130.2h-14c-0.2,0.1-2.2,1.6-2.7,2.1c-0.4-0.3-2.6-2-2.6-2l-15.2-0.1l-7.3,8l-0.1,24.5
			c0,0,19.3,0,19.6,0c0.2,0.2,2.6,2.6,2.6,2.6h5.9c0,0,2.1-2.1,2.3-2.3c0.3,0,18.8,0,18.8,0v-25.4c-0.1-0.3-7-7.3-7-7.3l-0.1-0.1
			H157.9L157.9,130.2z M141.4,133l2.7-2.1c0,0,13.3,0.1,13.6,0.1c0.2,0.2,6.8,7,6.8,7s-0.1,23.7-0.1,24.4c-0.7,0-18.4,0-18.4,0
			s-2.1,2.1-2.3,2.3c-0.3,0-5,0-5.3,0c-0.2-0.2-2.6-2.6-2.6-2.6s-18.5,0-19.2,0c0-0.7,0-23.5,0-23.5c0.1,0.1,6.5-6.9,7-7.5
			c0.3,0,14.7,0,14.7,0l0,0c0,0.1,2.6,2.1,2.6,2.1l0.2,0.2L141.4,133z"/>
		<path class="st1" d="M123.2,130.6v24.3c0,0,15.6,0,15.7,0l0,0c0,0.1,2.2,2,2.2,2l0.2,0.2l2.7-2.4c0,0.1,13.9,0.1,13.9,0.1h0.4
			l0.1-24.3h-0.7c0,0-0.1,22.9-0.1,23.6c-0.7,0-13.8,0-13.8,0c-0.2,0.1-1.9,1.6-2.4,2c-0.4-0.3-2.2-1.9-2.2-1.9s-14.5-0.1-15.2-0.1
			c0-0.7,0-23.6,0-23.6L123.2,130.6L123.2,130.6z"/>
		<path class="st1" d="M161.1,134.3c0,0,0,22.7,0,23.4c-0.7,0-16.3,0-16.3,0c-0.3,0.1-2.7,2.4-2.7,2.4s-2.1-0.1-2.4-0.1
			c-0.2-0.2-2.2-2.2-2.2-2.2s-16.4,0-17.1,0c0-0.7,0-23.4,0-23.4h-0.7v24.1c0,0,17.3,0,17.6,0c0.2,0.2,2.2,2.2,2.2,2.2h2.9
			c0.3-0.1,2.7-2.4,2.7-2.4l16.7,0.1v-24.1H161.1L161.1,134.3z"/>
		<path class="st1" d="M121.5,132.5v24.4c0,0,16.1,0,16.4,0c0.2,0.2,2.2,2.3,2.2,2.3h1.9c0,0,1.9-2.1,2.1-2.4c0.3,0,16-0.1,16-0.1
			v-24.1h-0.7c0,0,0,22.7,0,23.4c-0.7,0-15.6,0.1-15.6,0.1s-1.9,2.1-2.1,2.4c-0.2,0-1,0-1.3,0c-0.2-0.2-2.2-2.3-2.2-2.3
			s-15.3,0-16,0c0-0.7,0-23.6,0-23.6L121.5,132.5L121.5,132.5z"/>
		<path class="st1" d="M162.8,136.2c0,0,0,23.1,0,23.8c-0.7,0-17.8,0-17.8,0s-1.8,1.8-2,2c-0.3,0-3.7,0-4,0
			c-0.2-0.2-1.9-2.4-1.9-2.4s-18,0-18.7,0c0-0.7,0-23,0-23h-0.7v23.7c0,0,18.7,0,19,0c0.2,0.2,1.9,2.4,1.9,2.4h4.7c0,0,1.8-1.8,2-2
			c0.3,0,18.2,0,18.2,0v-24.5H162.8L162.8,136.2z"/>
		
			<rect x="114.6" y="158.1" transform="matrix(0.6805 -0.7327 0.7327 0.6805 -77.7956 138.4879)" class="st1" width="10.6" height="0.7"/>
		<polygon class="st1" points="157.6,154.8 164.4,162.7 164.9,162.2 158.2,154.3 		"/>
	</g>
</g>
</svg>
