<?xml version="1.0" encoding="utf-8"?>
<!-- Generator: Adobe Illustrator 23.0.1, SVG Export Plug-In . SVG Version: 6.00 Build 0)  -->
<svg version="1.1" id="레이어_1" xmlns="http://www.w3.org/2000/svg" xmlns:xlink="http://www.w3.org/1999/xlink" x="0px"
	 y="0px" viewBox="0 0 595.3 99.2" style="enable-background:new 0 0 595.3 99.2;" xml:space="preserve">
<style type="text/css">
	.st0{fill:#FFFFFF;stroke:#000000;stroke-miterlimit:10;}
	.st1{fill:#002965;}
</style>
<rect class="st0" width="595.3" height="99.2"/>
<g>
	<path class="st1" d="M350.5,58.5h27.6v6.2h7.8V53.9h-35.4V58.5z M285,50.4c6.1,0,11-4,11-8.9s-5-8.9-11-8.9c-6.1,0-11,4-11,8.9
		C273.9,46.5,278.9,50.4,285,50.4z M285,37.1c2.6,0,4.7,2,4.7,4.4c0,2.5-2.1,4.5-4.7,4.5s-4.7-2-4.7-4.5
		C280.2,39.1,282.3,37.1,285,37.1z M351.6,46.1c0,4,4.8,7.2,10.6,7.2s10.6-3.2,10.6-7.2c0-1.3-0.6-2.6-1.5-3.7h4.6v-4.1h-27.5l0,4.1
		h4.7C352.1,43.5,351.6,44.8,351.6,46.1z M360.1,42.4h4.1c1.2,0.7,2.1,2.1,2.1,3.7c0,2.4-1.9,4.3-4.1,4.3s-4.1-1.9-4.1-4.3
		C358,44.5,358.9,43.1,360.1,42.4z M372.4,37.3v-3.9H352v3.9H372.4z M424.5,60.6V33.4h-34.4l0,4.4l27.3,0l0,23l-4.7,0V43.4h-6.8
		v17.3h-2.9V43.5h-7.1v17.1h-7v4.2h39.3v-4.2L424.5,60.6L424.5,60.6z M339.9,44.5h-2.2V33.6h-6.8v27.2h-12.9V37h10v-3.5h-16v31.3
		h25.6V48.9h2.2v15.9h6.9V33.5h-6.8L339.9,44.5L339.9,44.5z M378.1,33.4l0,19.5l7.7,0v-5.2h4.2v-4.6h-4.2v-9.8L378.1,33.4z
		 M254.3,31.5h-6.9v2.8h-16.9l0.1,4.1h4.9c-1.2,0.9-1.9,2-1.9,3c0,3.2,6.1,6.1,12.9,7v0.8h-16.7v4h6.8c-2.5,1.4-4,3.3-4,5.2
		c0,4.6,8.1,8.3,18.2,8.3c10,0,18.2-3.7,18.2-8.3c0-2-1.5-3.8-4-5.2h6.2v-4h-16.7v-0.8c6.9-0.8,12.9-3.8,12.9-7c0-1.1-0.7-2.1-1.8-3
		h5.7v-4.1h-17L254.3,31.5L254.3,31.5z M262.1,57.9c0,2.5-5.1,4.6-11.3,4.6c-6.3,0-11.3-2-11.3-4.6c0-2.5,5.1-4.6,11.3-4.6
		C257,53.3,262.1,55.4,262.1,57.9z M259.1,41.5c0,2.1-3.3,3-8.4,3c-5.2,0-9.1-1.1-9.1-3.2s3.7-3,8.9-3
		C255.7,38.3,259.1,39.4,259.1,41.5z M301,50.2h6.6V33.5H301V50.2z M274.9,55.8h25.9v9.1h6.9V51.7h-32.8V55.8z"/>
	<g>
		<path class="st1" d="M185.1,56.5C185.1,56.5,185.1,56.5,185.1,56.5c0,0.1,0,0.1,0,0.1s0,0,0,0.1c0,0-0.1,0.1-0.1,0.1
			c-0.1,0-0.1,0-0.2,0c-0.1,0-0.2,0-0.2,0c-0.1,0-0.1-0.1-0.2-0.2c0,0,0-0.1,0-0.1c0,0,0,0,0-0.1l0.2,0l0.2,0L185.1,56.5
			C185.1,56.5,185.1,56.5,185.1,56.5z M185,56.1C185,56.1,185,56.1,185,56.1c-0.1,0-0.2,0-0.4,0.1c-0.2,0-0.3,0-0.4,0.1l-0.4,0
			c0,0-0.1,0-0.1,0c-0.1,0-0.1,0-0.2,0l-0.1,0c0,0,0,0,0,0.1c0,0,0,0.1,0,0.1c0,0,0,0,0,0.1c0,0,0,0.1,0,0.1c0.1,0,0.1,0,0.2,0
			s0.2,0,0.2,0c0.1,0,0.1,0,0.2,0s0.1,0,0.2,0c0,0,0,0,0,0c0,0,0,0,0,0.1c0,0,0,0,0,0.1c0,0,0,0.1,0,0.1c0,0.1,0.1,0.2,0.1,0.2
			c0,0,0.1,0.1,0.1,0.2c0.1,0,0.1,0.1,0.2,0.1c0.1,0,0.1,0,0.2,0c0.1,0,0.2-0.1,0.3-0.1c0.1-0.1,0.1-0.2,0.1-0.3c0,0,0-0.1,0-0.1
			c0,0,0-0.1,0-0.1c0,0,0,0,0-0.1c0-0.1,0-0.2,0-0.2l0-0.2C185.1,56.1,185.1,56.1,185,56.1z"/>
		<path class="st1" d="M185.4,58c0,0.1,0,0.2,0,0.2c0,0.1-0.1,0.1-0.1,0.2c0,0-0.1,0-0.1,0c-0.3,0-0.4,0-0.4-0.3c0,0,0,0,0-0.1
			l0.2,0l0.2,0L185.4,58C185.4,57.9,185.4,57.9,185.4,58z M184,58.9C184,58.9,184,59,184,58.9c0,0.2,0,0.2,0,0.2l0.1-0.1
			c0.1,0,0.1-0.1,0.2-0.2c0.2-0.2,0.3-0.3,0.4-0.4c0.1,0.1,0.1,0.2,0.2,0.3c0.1,0.1,0.2,0.1,0.3,0c0.1,0,0.2,0,0.2-0.1
			s0.1-0.1,0.1-0.2c0,0,0-0.1,0-0.2c0-0.1,0-0.1-0.1-0.3c0-0.1,0-0.1,0-0.2c0-0.1,0-0.1,0-0.2l0-0.2c-0.1,0-0.2,0-0.4,0.1
			c-0.1,0-0.1,0-0.2,0l-0.5,0.1c0,0-0.1,0-0.2,0c-0.1,0-0.2,0-0.3,0.1l-0.2,0l-0.1,0c0,0,0,0,0,0.1c0,0,0,0.1,0,0.1c0,0,0,0,0,0.1
			c0,0,0,0.1,0,0.1c0,0,0.1,0,0.1,0s0.1,0,0.1,0l0.1,0l0.5-0.1c0,0,0,0,0,0c0,0,0,0,0,0l-0.1,0.1l-0.1,0.1l-0.5,0.4
			C183.9,58.8,183.9,58.9,184,58.9z"/>
		<path class="st1" d="M184.6,59.9c0.1-0.1,0.2-0.2,0.4-0.3c0.1,0,0.2-0.1,0.3-0.1c0.1,0,0.2,0,0.3,0c0.1,0,0.2,0,0.3,0.1
			c0.1,0,0.1,0.1,0.1,0.1c0,0,0.1,0.1,0.1,0.1c0.1,0.2,0,0.3-0.1,0.5c-0.1,0.1-0.2,0.2-0.4,0.3c-0.1,0-0.2,0.1-0.3,0.1
			c-0.1,0-0.2,0-0.3,0c-0.1,0-0.2,0-0.3-0.1s-0.1-0.1-0.2-0.2C184.4,60.2,184.5,60.1,184.6,59.9z M185.8,61c0.1,0,0.1-0.1,0.2-0.1
			c0.1,0,0.1-0.1,0.1-0.2c0-0.1,0.1-0.1,0.1-0.2c0-0.1,0-0.2,0-0.3s0-0.2-0.1-0.3c-0.1-0.1-0.1-0.3-0.2-0.3s-0.2-0.2-0.3-0.3
			c-0.1-0.1-0.2-0.1-0.4-0.1c-0.1,0-0.3,0-0.4,0.1c-0.1,0-0.2,0.1-0.3,0.2c-0.1,0.1-0.2,0.2-0.2,0.3c-0.1,0.1-0.1,0.2-0.1,0.4
			c0,0.1,0,0.3,0.1,0.4s0.1,0.3,0.2,0.3s0.2,0.2,0.3,0.2c0.1,0.1,0.2,0.1,0.4,0.1c0.1,0,0.3,0,0.4-0.1C185.7,61.1,185.7,61,185.8,61
			z"/>
		<path class="st1" d="M186.9,61.5C186.9,61.5,186.9,61.6,186.9,61.5c0.1,0.1,0.1,0.2,0.1,0.2c0,0,0.1,0,0.1,0.1
			c0,0,0.1,0.1,0.1,0.1c0,0-0.1,0.1-0.2,0.1s-0.1,0.1-0.1,0.1l-0.1,0.1l-0.2,0.2c0,0,0.1,0.1,0.1,0.2c0.1,0.1,0.1,0.1,0.1,0.1
			c0,0,0.1,0.1,0.1,0.2c0.1,0.1,0.1,0.1,0.1,0.1l0.3-0.2c0,0,0.1-0.1,0.1-0.1c0.1-0.1,0.1-0.1,0.2-0.1c0,0,0,0.1,0.1,0.1
			c0,0,0.1,0.1,0.1,0.1c0,0,0,0,0.1,0.1c0,0,0.1,0.1,0.1,0.1c0,0-0.1,0.1-0.1,0.1c-0.1,0.1-0.2,0.1-0.2,0.1l-0.5,0.4
			c-0.1,0.1-0.2,0.1-0.2,0.2c-0.2,0.2-0.4,0.3-0.4,0.3c0,0,0-0.1-0.1-0.1c0,0,0-0.1-0.1-0.1c0,0-0.1-0.1-0.1-0.1
			c0,0-0.1-0.1-0.1-0.1l0.3-0.2l0.3-0.2l0.1-0.1l-0.2-0.3l-0.3-0.3l-0.3,0.2c-0.1,0-0.1,0.1-0.2,0.2c-0.1,0.1-0.2,0.1-0.2,0.2
			c0,0,0,0-0.1-0.1c0,0,0-0.1-0.1-0.1c0,0-0.1-0.1-0.1-0.1c0,0-0.1-0.1-0.1-0.1c0.1-0.1,0.2-0.1,0.3-0.2c0.3-0.2,0.4-0.3,0.5-0.4
			c0.1-0.1,0.2-0.1,0.2-0.2C186.7,61.6,186.9,61.5,186.9,61.5z"/>
		<path class="st1" d="M187.6,64.4c0-0.2,0.1-0.3,0.2-0.5c0.1-0.1,0.1-0.2,0.2-0.2c0.1-0.1,0.1-0.1,0.2-0.2c0.1,0,0.2-0.1,0.3-0.1
			c0.1,0,0.1,0,0.1,0c0,0,0.1,0,0.1,0.1c0.1,0.1,0.2,0.3,0.2,0.5c0,0.2-0.1,0.3-0.2,0.5c-0.1,0.1-0.1,0.2-0.2,0.2
			c-0.1,0.1-0.1,0.1-0.2,0.2c-0.1,0.1-0.2,0.1-0.3,0.1s-0.2,0-0.3-0.1C187.6,64.7,187.6,64.6,187.6,64.4z M189.2,64.6
			c0-0.1,0.1-0.1,0.1-0.2c0-0.1,0-0.2,0-0.2c0-0.1,0-0.1-0.1-0.2c0-0.1-0.1-0.2-0.1-0.3c-0.1-0.1-0.1-0.2-0.2-0.2
			c-0.1-0.1-0.2-0.2-0.4-0.2c-0.1,0-0.3-0.1-0.4,0c-0.1,0-0.3,0-0.4,0.1c-0.1,0.1-0.2,0.2-0.3,0.3c-0.1,0.1-0.1,0.2-0.2,0.3
			c0,0.1,0,0.2,0,0.4c0,0.1,0.1,0.2,0.1,0.3c0.1,0.1,0.2,0.2,0.3,0.3c0.1,0.1,0.2,0.2,0.4,0.2c0.1,0,0.2,0.1,0.4,0
			c0.1,0,0.3-0.1,0.4-0.1c0.1-0.1,0.2-0.2,0.3-0.3C189.1,64.8,189.1,64.7,189.2,64.6z"/>
		<path class="st1" d="M189.5,64.9l0.4-0.7c0,0,0,0,0.1,0c0,0,0,0,0,0c0,0,0,0,0.1,0s0,0,0,0c0,0.2,0,0.4,0,0.5c0,0,0,0.2,0,0.5
			c0,0.2,0,0.3,0,0.5l0.3-0.2c0.3-0.2,0.5-0.5,0.8-0.7l0,0c0,0,0,0,0,0c0,0,0,0,0,0c0,0,0.1,0,0.1,0c-0.1,0.3-0.2,0.6-0.2,0.8
			c-0.1,0.2-0.1,0.3-0.1,0.4l-0.1,0.4c0,0,0,0,0,0.1c0,0,0,0.1,0,0.1c0,0-0.1,0-0.1-0.1c-0.1,0-0.1,0-0.1,0c0,0-0.1,0-0.1,0
			c-0.1,0-0.1,0-0.1,0c0.1-0.2,0.1-0.3,0.2-0.6c0.1-0.2,0.1-0.4,0.2-0.6c-0.1,0.1-0.2,0.2-0.3,0.3c-0.1,0.1-0.2,0.2-0.3,0.3
			c-0.1,0.1-0.2,0.2-0.3,0.3c0,0,0,0-0.1,0c0,0,0,0,0,0l0-0.5c0-0.2,0-0.3,0-0.4c0-0.1,0-0.3,0-0.4l-0.2,0.4l-0.1,0.3l-0.1,0.2
			l-0.1,0.2c0,0-0.1,0-0.1,0c0,0,0,0,0,0c0,0-0.1,0-0.1,0c0,0,0,0,0,0c0,0,0,0,0,0c0,0,0.1-0.1,0.1-0.2c0-0.1,0.1-0.1,0.1-0.2
			c0-0.1,0.1-0.1,0.1-0.2C189.4,65,189.5,65,189.5,64.9z"/>
		<path class="st1" d="M192.3,65.1c0,0,0,0.1,0,0.1c0,0.1-0.1,0.2-0.1,0.2c0,0.1,0,0.1-0.1,0.3c0,0.1-0.1,0.2-0.1,0.3
			c0,0.1,0,0.2-0.1,0.3c0,0.1-0.1,0.2-0.1,0.3c0,0,0,0.1-0.1,0.2c0,0.1,0,0.1,0,0.1c0,0-0.1,0-0.1,0c-0.1,0-0.1,0-0.1,0
			c-0.1,0-0.1,0-0.2-0.1c0-0.1,0.1-0.2,0.1-0.3c0.1-0.3,0.1-0.5,0.2-0.6l0-0.1l0.1-0.3c0-0.1,0-0.1,0-0.1s0-0.1,0-0.2
			c0,0,0.1,0,0.1,0c0.1,0,0.1,0,0.1,0C192.1,65,192.1,65,192.3,65.1C192.2,65.1,192.3,65.1,192.3,65.1z"/>
		<path class="st1" d="M192.6,67L192.6,67l-0.1,0c0,0-0.1,0-0.1,0c0-0.2,0.1-0.4,0.1-0.6s0.1-0.4,0.1-0.6l0.1-0.4l0-0.1
			c0,0,0.1,0,0.1,0s0.1,0,0.1,0c0.1,0.1,0.2,0.2,0.3,0.5c0.1,0.2,0.2,0.3,0.3,0.5c0.1,0.2,0.2,0.3,0.3,0.5l0.1-0.6l0-0.3
			c0,0,0-0.1,0-0.2c0-0.1,0-0.1,0-0.2v-0.1c0,0,0.1,0,0.1,0c0,0,0,0,0.1,0c0,0,0,0,0.1,0s0.1,0,0.1,0l0,0.1c0,0,0,0.1,0,0.1
			c0,0.1,0,0.2,0,0.2c0,0.1,0,0.2,0,0.3c0,0.1,0,0.2,0,0.2l0,0.3l-0.1,0.6l0,0c0,0-0.1,0-0.1,0c0,0-0.1,0-0.1,0
			c-0.1-0.2-0.2-0.3-0.2-0.4c-0.1-0.1-0.2-0.3-0.2-0.4c-0.1-0.1-0.1-0.2-0.2-0.3l-0.2-0.3l-0.1,0.3l0,0.2c0,0.1,0,0.2-0.1,0.4
			C192.6,66.8,192.6,66.9,192.6,67z"/>
		<path class="st1" d="M196.2,65.5c0,0.1,0,0.1,0,0.2c0,0.1,0,0.1,0,0.2l0,0.3l0,0.3c0,0.2,0,0.3-0.1,0.4c0,0.1-0.1,0.3-0.3,0.3
			c-0.1,0.1-0.1,0.1-0.2,0.1s-0.2,0-0.3,0c-0.2,0-0.3,0-0.5-0.1c-0.1-0.1-0.2-0.2-0.3-0.4c0,0,0,0,0-0.1c0,0,0-0.1,0-0.1s0,0,0-0.1
			s0,0,0-0.1c0,0,0-0.1,0-0.1l0-0.3l0-0.3l0-0.3v-0.1c0,0,0.1,0,0.1,0c0.1,0,0.1,0,0.1,0c0.1,0,0.1,0,0.2,0l0,0.1c0,0.1,0,0.2,0,0.3
			c0,0.1,0,0.2,0,0.3v0.1c0,0.1,0,0.1,0,0.2c0,0.1,0,0.1,0,0.2s0,0.1,0,0.2c0,0,0.1,0.1,0.1,0.1c0.1,0.1,0.2,0.1,0.3,0.1
			c0.1,0,0.2,0,0.3-0.1c0.1-0.1,0.1-0.1,0.2-0.2c0-0.1,0-0.1,0.1-0.2c0-0.1,0-0.2,0-0.3c0-0.1,0-0.2,0-0.4s0-0.3,0-0.4
			c0,0,0.1,0,0.1,0c0,0,0,0,0.1,0C196.1,65.5,196.1,65.5,196.2,65.5C196.2,65.5,196.2,65.5,196.2,65.5z"/>
		<path class="st1" d="M196.7,66.3l0-0.8c0,0,0,0,0.1,0s0,0,0.1,0c0,0,0,0,0.1,0s0,0,0,0c0.1,0.2,0.2,0.3,0.2,0.4
			c0,0,0.1,0.2,0.2,0.4c0.1,0.1,0.2,0.3,0.2,0.4l0.1-0.3c0.1-0.3,0.3-0.7,0.4-1h0c0,0,0,0,0,0s0,0,0,0c0,0,0.1,0,0.1,0
			c0.1,0.3,0.1,0.6,0.2,0.8c0,0.2,0.1,0.3,0.1,0.4l0.1,0.4c0,0,0,0,0,0.1c0,0,0,0.1,0,0.1c0,0-0.1,0-0.1,0c-0.1,0-0.1,0-0.1,0
			c0,0-0.1,0-0.1,0c-0.1,0-0.1,0-0.1,0c0-0.2-0.1-0.4-0.1-0.6c-0.1-0.2-0.1-0.4-0.1-0.6c-0.1,0.1-0.1,0.3-0.2,0.4s-0.1,0.3-0.2,0.4
			c0,0.1-0.1,0.2-0.1,0.4c0,0-0.1,0-0.1,0s0,0,0,0l-0.2-0.4c-0.1-0.1-0.1-0.3-0.2-0.4c-0.1-0.1-0.1-0.2-0.2-0.4l0,0.5v0.3l0,0.3
			l0,0.2c0,0-0.1,0-0.1,0c0,0,0,0,0,0c0,0-0.1,0-0.1,0c0,0,0,0,0-0.1c0,0,0,0,0-0.1c0,0,0-0.1,0-0.2c0-0.1,0-0.1,0-0.2
			c0-0.1,0-0.2,0-0.3C196.7,66.4,196.7,66.3,196.7,66.3z"/>
		<path class="st1" d="M199.9,65.3c0-0.1,0-0.2-0.1-0.2c0,0,0.1,0,0.1,0c0,0,0,0,0.1,0c0.1,0,0.1,0,0.2,0c0,0,0.1,0,0.1,0.1
			s0.1,0.1,0.1,0.1c0,0.1,0,0.1,0,0.2s0,0.1,0,0.1c0,0-0.1,0.1-0.1,0.1s-0.1,0-0.1,0.1c0,0,0,0,0,0l-0.1-0.3
			C200,65.5,199.9,65.4,199.9,65.3z M200.7,65.4c0.1-0.1,0.1-0.2,0-0.3c0-0.1-0.1-0.2-0.3-0.3c-0.1,0-0.2,0-0.4,0l-0.4,0.1l-0.3,0.1
			c0,0.1,0.1,0.2,0.1,0.3c0.1,0.2,0.1,0.3,0.1,0.3c0,0,0,0.1,0.1,0.3s0.1,0.3,0.1,0.4c0,0.1,0,0.1,0.1,0.2s0,0.1,0,0.2l0.2-0.1
			l0.4-0.1c0,0,0.1,0,0.1,0s0.1,0,0.1,0c0.1,0,0.1-0.1,0.1-0.1c0.1,0,0.1-0.1,0.1-0.1c0.1-0.1,0.1-0.3,0-0.4c0-0.1-0.1-0.2-0.2-0.3
			c-0.1,0-0.1,0-0.2,0s-0.1,0-0.2,0l0,0C200.5,65.6,200.6,65.5,200.7,65.4z M200.1,65.9C200.1,65.9,200.1,65.9,200.1,65.9
			C200.2,65.8,200.2,65.8,200.1,65.9c0.2-0.1,0.3-0.1,0.4,0c0.1,0,0.1,0.1,0.2,0.2c0,0.1,0,0.2,0,0.2c0,0.1,0,0.1-0.1,0.1
			c0,0-0.1,0.1-0.1,0.1l-0.1,0l-0.1-0.3L200.1,65.9z"/>
		<path class="st1" d="M200.9,64.6L200.9,64.6c0,0,0.1-0.1,0.2-0.1c0.1,0,0.1-0.1,0.2-0.1c0.1,0,0.2-0.1,0.3-0.2
			c0.1-0.1,0.2-0.1,0.2-0.1c0,0,0,0.1,0,0.1c0,0,0,0,0,0c0,0,0,0,0,0l0,0c-0.1,0-0.1,0.1-0.3,0.1c-0.1,0.1-0.2,0.1-0.3,0.1l0.1,0.3
			l0.1,0.3l0.5-0.3c0,0,0,0.1,0,0.1c0,0,0,0,0,0.1c0,0,0,0,0,0.1s0,0,0,0c-0.1,0-0.1,0.1-0.2,0.1c-0.1,0-0.2,0.1-0.2,0.1l-0.1,0.1
			l0.1,0.3l0.1,0.3c0.2-0.1,0.3-0.2,0.5-0.3c0,0,0,0.1,0,0.1c0,0,0,0,0,0c0,0,0,0,0,0l0,0c-0.1,0-0.1,0.1-0.2,0.1
			c-0.1,0-0.2,0.1-0.2,0.1l-0.3,0.1l-0.2,0.1l-0.1-0.1l-0.2-0.4l-0.2-0.4l-0.1-0.3c0-0.1-0.1-0.1-0.1-0.1
			C200.9,64.7,200.9,64.6,200.9,64.6z"/>
		<path class="st1" d="M203.3,65.4L203.3,65.4l-0.1,0.1c0,0-0.1,0.1-0.1,0.1c-0.1-0.1-0.2-0.3-0.3-0.5s-0.3-0.4-0.4-0.5l-0.3-0.3
			l-0.1-0.1c0,0,0.1,0,0.1-0.1s0.1,0,0.1-0.1c0.1,0,0.3,0,0.6,0.1c0.2,0,0.4,0.1,0.6,0.1c0.2,0.1,0.4,0.1,0.6,0.1l-0.3-0.5l-0.2-0.2
			c0,0-0.1-0.1-0.1-0.1s-0.1-0.1-0.1-0.1l0,0c0,0,0,0,0.1,0s0,0,0,0s0,0,0,0c0,0,0,0,0,0l0.1,0.1c0,0,0.1,0.1,0.1,0.1
			c0.1,0.1,0.1,0.2,0.1,0.2c0.1,0.1,0.1,0.1,0.1,0.2c0.1,0.1,0.1,0.1,0.1,0.2l0.2,0.2l0.3,0.4l0,0c0,0,0,0-0.1,0
			c0,0-0.1,0.1-0.1,0.1c-0.2,0-0.3-0.1-0.4-0.1c-0.1,0-0.3-0.1-0.4-0.1c-0.1,0-0.2,0-0.4-0.1l-0.4-0.1l0.2,0.3l0.1,0.2
			c0,0.1,0.1,0.2,0.3,0.3C203.1,65.2,203.2,65.3,203.3,65.4z"/>
		<path class="st1" d="M203.5,62.9L203.5,62.9c0,0,0.1-0.1,0.1-0.2c0.1-0.1,0.1-0.1,0.1-0.2c0.1-0.1,0.1-0.2,0.2-0.3
			c0.1-0.1,0.1-0.2,0.2-0.2c0,0,0.1,0,0.1,0.1c0,0,0,0,0,0c0,0,0,0,0,0l0,0c0,0-0.1,0.1-0.2,0.2c-0.1,0.1-0.2,0.2-0.2,0.2l0.2,0.2
			l0.2,0.2l0.4-0.5c0,0,0,0,0.1,0c0,0,0,0,0,0c0,0,0,0,0,0c0,0,0,0,0,0c0,0-0.1,0.1-0.2,0.2c-0.1,0.1-0.1,0.1-0.2,0.2l-0.1,0.1
			l0.3,0.2l0.3,0.2c0.1-0.1,0.3-0.3,0.4-0.5c0,0,0.1,0.1,0.1,0.1c0,0,0,0,0,0c0,0,0,0,0,0l0,0c0,0-0.1,0.1-0.2,0.2
			c-0.1,0.1-0.1,0.1-0.2,0.2l-0.2,0.2l-0.1,0.2l-0.1-0.1l-0.4-0.3l-0.3-0.3l-0.2-0.2c-0.1,0-0.1-0.1-0.1-0.1
			C203.6,63,203.5,62.9,203.5,62.9z"/>
		<path class="st1" d="M204.3,62L204.3,62c0-0.1,0-0.1,0.1-0.2c0.1-0.1,0.1-0.1,0.1-0.2c0.1-0.1,0.1-0.2,0.2-0.3
			c0.1-0.1,0.1-0.2,0.1-0.2c0,0,0.1,0,0.1,0.1c0,0,0,0,0,0c0,0,0,0,0,0l0,0c0,0.1-0.1,0.1-0.2,0.2c-0.1,0.1-0.1,0.2-0.2,0.2l0.2,0.2
			l0.2,0.2l0.3-0.5c0,0,0,0,0.1,0c0,0,0,0,0,0c0,0,0,0,0.1,0c0,0,0,0,0,0c0,0-0.1,0.1-0.1,0.2c-0.1,0.1-0.1,0.1-0.1,0.2l-0.1,0.1
			l0.3,0.2l0.5,0.3c0,0,0,0-0.1,0.1c0,0-0.1,0.1-0.1,0.1c0,0,0,0.1-0.1,0.1c0,0,0,0.1-0.1,0.1l-0.1-0.1l-0.4-0.3l-0.3-0.2l-0.3-0.2
			c-0.1,0-0.1-0.1-0.1-0.1C204.4,62,204.3,62,204.3,62z"/>
		<path class="st1" d="M205.2,60.5c0,0,0.1,0,0.1,0.1c0.1,0.1,0.2,0.1,0.2,0.1c0.1,0,0.1,0.1,0.2,0.1c0.1,0.1,0.2,0.1,0.2,0.1
			c0.1,0,0.1,0.1,0.2,0.1s0.2,0.1,0.3,0.1c0,0,0.1,0,0.2,0.1c0.1,0,0.1,0,0.1,0.1c0,0,0,0.1-0.1,0.1c0,0,0,0.1-0.1,0.1
			c0,0.1-0.1,0.1-0.1,0.2c-0.1,0-0.2-0.1-0.3-0.2c-0.3-0.2-0.4-0.3-0.5-0.3l-0.1-0.1l-0.3-0.2c0,0-0.1,0-0.1-0.1c0,0-0.1,0-0.2-0.1
			c0,0,0-0.1,0.1-0.1c0,0,0-0.1,0.1-0.1C205.1,60.7,205.1,60.6,205.2,60.5C205.1,60.5,205.2,60.5,205.2,60.5z"/>
		<path class="st1" d="M207.2,59.4L207.2,59.4l0.2,0.1c0,0.1,0,0.2,0,0.3c0,0.1,0,0.2-0.1,0.3c0,0.1-0.1,0.1-0.1,0.2
			c0,0,0,0-0.1,0.1c0,0-0.1,0.1-0.1,0.1c0,0-0.1,0.1-0.1,0.1c0,0-0.1,0-0.1,0.1s-0.1,0-0.1,0c-0.1,0-0.2,0-0.3,0
			c-0.1,0-0.2,0-0.3-0.1c-0.1-0.1-0.3-0.1-0.4-0.2c-0.1-0.1-0.2-0.2-0.2-0.3c0-0.1-0.1-0.2-0.1-0.4s0-0.3,0.1-0.4
			c0-0.1,0.1-0.2,0.1-0.3s0.1-0.2,0.2-0.2c0,0,0.1,0,0.1,0.1s0.1,0,0.1,0.1l0,0c-0.1,0-0.2,0.1-0.2,0.1c-0.1,0.1-0.1,0.1-0.1,0.2
			c-0.1,0.2-0.1,0.4,0.1,0.5c0.1,0.1,0.3,0.3,0.4,0.3c0.1,0,0.2,0.1,0.3,0.1s0.2,0,0.3,0c0.1,0,0.2-0.1,0.2-0.1
			c0.1-0.1,0.1-0.1,0.1-0.2c0-0.1,0-0.2,0-0.3C207.3,59.5,207.3,59.5,207.2,59.4z"/>
		<path class="st1" d="M206,58.2c0,0,0.1,0,0.1,0c0.1,0,0.2,0.1,0.2,0.1c0.1,0,0.1,0,0.3,0.1s0.2,0.1,0.3,0.1s0.1,0,0.3,0.1
			c0.1,0,0.2,0,0.3,0.1c0,0,0.1,0,0.2,0c0.1,0,0.1,0,0.1,0c0,0,0,0.1,0,0.1c0,0,0,0.1,0,0.1c0,0.1,0,0.1-0.1,0.2
			c-0.1,0-0.2-0.1-0.3-0.1c-0.3-0.1-0.5-0.2-0.6-0.2l-0.1,0l-0.3-0.1c-0.1,0-0.1,0-0.1,0c-0.1,0-0.1,0-0.2,0c0,0,0-0.1,0-0.1
			c0,0,0-0.1,0-0.1C206,58.3,206,58.3,206,58.2C206,58.2,206,58.2,206,58.2z"/>
		<path class="st1" d="M207.6,57.6c-0.1,0.1-0.3,0.1-0.5,0c-0.1,0-0.2,0-0.3-0.1s-0.2-0.1-0.3-0.1s-0.1-0.1-0.2-0.2
			c0,0-0.1-0.1-0.1-0.1s0-0.1,0-0.2c0-0.2,0.1-0.3,0.3-0.4c0.1-0.1,0.3-0.1,0.5,0c0.1,0,0.2,0,0.3,0.1s0.2,0.1,0.2,0.1
			c0.1,0.1,0.1,0.2,0.2,0.2c0,0.1,0.1,0.2,0,0.3C207.9,57.4,207.8,57.5,207.6,57.6z M207.1,56c-0.1,0-0.1,0-0.2,0s-0.1,0-0.2,0.1
			c-0.1,0-0.1,0.1-0.2,0.1c-0.1,0.1-0.1,0.2-0.2,0.3s-0.1,0.2-0.1,0.3c0,0.1,0,0.3,0,0.4c0,0.1,0.1,0.2,0.1,0.4
			c0.1,0.1,0.2,0.2,0.3,0.3s0.2,0.1,0.4,0.1s0.3,0,0.4,0c0.1,0,0.2-0.1,0.3-0.2s0.2-0.2,0.2-0.3c0.1-0.1,0.1-0.2,0.1-0.4
			c0-0.1,0-0.3,0-0.4c0-0.1-0.1-0.2-0.1-0.3c-0.1-0.1-0.2-0.2-0.3-0.3c-0.1-0.1-0.2-0.1-0.4-0.1C207.2,56,207.2,56,207.1,56z"/>
		<path class="st1" d="M191.8,60v-0.5l0,0c-0.1,0.1-0.2,0.1-0.3,0.2c0,0,0-0.1-0.1-0.1c0,0,0,0-0.1-0.1v0c0.1,0,0.3-0.1,0.4-0.2
			c0.1,0,0.3-0.1,0.4-0.2l0.1,0c0,0.1,0,0.3,0,0.4c0,0.4,0,0.6,0,0.7v0.2c0,0.1,0,0.2,0,0.3s0,0.3,0,0.3h0c-0.1,0-0.1,0-0.1,0
			s-0.1,0-0.1,0s-0.1,0-0.1,0c-0.1,0-0.1,0-0.1,0l0-0.2c0-0.1,0-0.3,0-0.5C191.8,60.2,191.8,60,191.8,60z"/>
		<path class="st1" d="M194.7,60.1c0,0.1-0.1,0.2-0.2,0.2c-0.1,0-0.1,0-0.2-0.1c0,0,0-0.1-0.1-0.2l0-0.1c0-0.1,0-0.2,0.1-0.3
			c0-0.1,0.1-0.2,0.2-0.2c0.1,0,0.2,0.1,0.2,0.2c0,0.1,0,0.2,0,0.3C194.8,59.9,194.8,60,194.7,60.1z M194,61.1
			C194,61.1,194,61.1,194,61.1c0,0.1,0,0.1,0.1,0.1s0,0,0,0c0,0,0.1,0,0.1,0s0.1,0,0.1,0c0.1,0,0.3,0,0.4-0.1s0.2-0.2,0.3-0.3
			c0.1-0.1,0.1-0.3,0.2-0.4c0-0.2,0.1-0.3,0.1-0.5c0-0.1,0-0.2,0-0.3s-0.1-0.2-0.1-0.3c-0.1-0.1-0.1-0.2-0.3-0.2
			c-0.1,0-0.2-0.1-0.3-0.1c-0.1,0-0.2,0-0.3,0c-0.1,0-0.1,0.1-0.2,0.1c-0.1,0.1-0.1,0.2-0.2,0.2c0,0.1,0,0.2,0,0.3
			c0,0.2,0.1,0.3,0.2,0.4c0.1,0.1,0.3,0.2,0.4,0.2c0.1,0,0.3,0,0.4-0.2l0,0v0c0,0.2,0,0.4-0.1,0.5c-0.1,0.2-0.2,0.3-0.4,0.3
			C194.2,61.1,194.1,61.1,194,61.1c0.1-0.1,0-0.1,0-0.1L194,61.1C194,61,194,61.1,194,61.1z"/>
		<path class="st1" d="M196.9,59.8c0.1-0.2,0.2-0.3,0.2-0.3h0v0.8h-0.6l0,0C196.6,60.1,196.8,60,196.9,59.8z M196.3,60.5
			C196.3,60.5,196.3,60.5,196.3,60.5c0,0.1,0,0.1,0,0.2c0,0,0,0,0,0.1h0.8c0,0.1,0,0.2,0,0.3s0,0.2,0,0.2c0,0,0,0,0.1,0
			c0.1,0,0.1,0,0.1,0c0,0,0.1,0,0.1,0s0.1,0,0.1,0h0l0,0l0-0.1l0-0.3l0.3,0c0-0.1,0-0.1,0-0.1c0,0,0,0,0-0.1s0-0.1,0-0.1s0,0,0-0.1
			l-0.3,0l0-0.6l0-0.3c0,0,0-0.1,0-0.2c0,0,0-0.1,0-0.1c-0.1,0-0.1,0-0.2,0c0,0-0.1,0-0.1,0c0,0-0.1,0-0.1,0h0
			c0,0.1-0.1,0.2-0.2,0.3c0,0.1-0.1,0.2-0.2,0.3l-0.2,0.3L196.3,60.5C196.3,60.4,196.3,60.5,196.3,60.5z"/>
		<path class="st1" d="M199.3,60.3c0-0.1,0.1-0.2,0.2-0.2c0.1,0,0.2,0.1,0.2,0.2c0,0.1,0,0.2,0,0.3c0,0.1,0,0.2,0,0.3
			c0,0.1-0.1,0.2-0.2,0.2c-0.1,0-0.2-0.1-0.2-0.2c0-0.1,0-0.2,0-0.3C199.3,60.5,199.3,60.4,199.3,60.3z M199.9,59.2c0,0-0.1,0-0.1,0
			c0,0,0,0-0.1,0s-0.1,0-0.1,0c-0.1,0-0.1,0-0.2,0s-0.1,0-0.2,0.1c-0.1,0.1-0.3,0.3-0.3,0.5c-0.1,0.2-0.1,0.4-0.1,0.6
			c0,0.1,0,0.2,0,0.3c0,0.1,0.1,0.2,0.1,0.3c0.1,0.1,0.1,0.2,0.2,0.2c0,0,0.1,0,0.1,0s0.1,0,0.2,0c0.2,0,0.4-0.1,0.5-0.2
			c0.1-0.1,0.2-0.3,0.2-0.5c0-0.2-0.1-0.3-0.2-0.4s-0.3-0.2-0.4-0.2c-0.1,0-0.3,0-0.3,0.2l0,0c0-0.1,0-0.2,0-0.3c0,0,0-0.1,0.1-0.2
			c0-0.1,0.1-0.1,0.1-0.2c0.1-0.1,0.1-0.1,0.1-0.1c0.1,0,0.1-0.1,0.2-0.1c0,0,0.1,0,0.1,0c0,0,0.1,0,0.1,0l0,0
			C200,59.3,199.9,59.2,199.9,59.2z"/>
		<path class="st1" d="M173.1,47.3c0.7,0,1.2-0.5,1.2-1.2c0-0.7-0.6-1.2-1.2-1.2c-0.7,0-1.2,0.5-1.2,1.2
			C171.9,46.8,172.4,47.3,173.1,47.3z"/>
		<path class="st1" d="M218.6,46.9c0.7,0,1.2-0.5,1.2-1.2c0-0.7-0.6-1.2-1.2-1.2c-0.7,0-1.2,0.5-1.2,1.2
			C217.4,46.4,217.9,46.9,218.6,46.9z"/>
		<polygon class="st1" points="174,36.9 175.2,35.2 174.9,34.9 175.4,34.2 175.7,34.5 177,32.8 177.6,33.1 174.5,37.2 		"/>
		<g>
			<polygon class="st1" points="178.2,36.1 177.4,35.5 176.8,36.3 177.6,36.9 			"/>
		</g>
		<g>
			<polygon class="st1" points="179.5,34.4 178.9,34.1 175.9,38.3 176.4,38.6 			"/>
		</g>
		<path class="st1" d="M177,36.5c-0.6,0.7-1.4,1-1.9,0.7c-0.5-0.3-0.4-1.4,0.4-2.3c0.7-1,1.7-1.4,2.2-1.1c0.4,0.3,0.4,1.1-0.1,1.8
			 M176.8,35.8c0.4-0.5,0.5-1,0.2-1.1c-0.2-0.2-0.7,0.1-1.1,0.6c-0.4,0.5-0.5,1-0.2,1.1C176,36.5,176.4,36.3,176.8,35.8z"/>
		<path class="st1" d="M177.3,38.8c-0.6-0.4-0.5-1.5,0.3-2.6c0.8-1,1.9-1.5,2.5-1.1c0.6,0.4,0.5,1.5-0.3,2.6
			C179,38.7,177.9,39.2,177.3,38.8z M179.2,37.3c0.5-0.6,0.6-1.3,0.3-1.5s-1,0.1-1.4,0.7s-0.6,1.3-0.3,1.5
			C178.1,38.3,178.7,38,179.2,37.3z"/>
		<g>
			<polygon class="st1" points="195.6,24.7 193.6,24.7 193.6,29.6 196.9,29.6 196.9,27.1 197.1,27.1 197.1,29.6 198,29.6 198,24.7 
				197.2,24.7 197.2,26.4 196.9,26.4 196.9,24.8 196,24.8 196,28.9 194.3,28.9 194.3,25.3 195.6,25.3 			"/>
		</g>
		<g>
			<polygon class="st1" points="215,33 217.6,36.5 213.9,38.8 214.2,39.2 213.7,39.6 210.8,35.6 211.3,35.3 211.8,36 214.1,34.5 
				214.6,35.2 212.4,36.7 212.6,37 214.9,35.5 215.4,36.2 213.1,37.7 213.4,38.2 216.5,36.2 214.4,33.4 			"/>
		</g>
		<polygon class="st1" points="206.1,26.6 208.3,28 208,28.4 205.9,27 		"/>
		<polygon class="st1" points="205.3,27 208.3,28.9 207.9,29.4 204.9,27.5 		"/>
		<polygon class="st1" points="208.9,28.4 209.8,28.9 208.9,30.2 209.4,30.5 208.9,31 208.5,30.8 208.1,31.4 207.3,30.8 		"/>
		<polygon class="st1" points="204.1,29.1 208,31.5 207,32.9 206.2,32.4 206.7,31.6 203.7,29.7 		"/>
		<path class="st1" d="M205,28.2c0.4-0.5,1.1-0.6,1.8-0.2s0.9,1.1,0.5,1.6s-1.1,0.6-1.8,0.2C204.8,29.5,204.6,28.7,205,28.2z
			 M205.7,29.5c0.3,0.1,0.6,0,0.8-0.3c0.2-0.3,0.2-0.7-0.1-0.8c-0.3-0.1-0.6,0-0.8,0.3C205.4,29,205.5,29.3,205.7,29.5z"/>
		<path class="st1" d="M171.1,55.2l4.2-1.2l0.2,0.6l-1.7,0.5l0.6,2.2l1.7-0.5l0.2,0.6l-4.2,1.2l-0.2-0.6l1.9-0.6l-0.6-2.2l-1.9,0.6
			L171.1,55.2z"/>
		<path class="st1" d="M173.8,60.1c0.2-0.4,0.5-0.7,0.9-0.9c0.5-0.3,1-0.3,1.4-0.2c0.4,0.1,0.7,0.4,0.9,0.8c0.2,0.4,0.2,0.8,0.1,1.2
			c-0.2,0.4-0.5,0.7-0.9,0.9c-0.4,0.2-0.9,0.3-1.3,0.3s-0.8-0.3-1-0.8C173.6,60.9,173.6,60.5,173.8,60.1z M176,58.4
			c-0.5-0.1-1,0-1.5,0.3c-0.6,0.3-1,0.7-1.2,1.2c-0.2,0.5-0.2,1.1,0.1,1.7c0.3,0.6,0.8,1,1.4,1.1c0.5,0.1,1.1,0,1.7-0.3
			c0.5-0.3,0.9-0.6,1.1-1c0.3-0.5,0.2-1.2-0.1-1.8C177.1,58.9,176.7,58.5,176,58.4z"/>
		<path class="st1" d="M175.5,64.9l2.8-2.2l-1.4,3.9l0.4,0.5l3.4-2.7l-0.3-0.4l-2.8,2.2l1.4-3.9l-0.4-0.5l-3.4,2.7L175.5,64.9z"/>
		<path class="st1" d="M181.1,65.7c-0.6,0.1-1.1,0.4-1.6,0.9c-0.5,0.6-0.7,1.1-0.6,1.7c0.1,0.5,0.3,0.9,0.7,1.2
			c0.3,0.3,0.6,0.4,0.9,0.5c0.2,0,0.4,0,0.7,0l-0.3,0.5l0.3,0.2l1.5-1.8l-1.4-1.2l-0.3,0.4l1,0.9c-0.3,0.4-0.7,0.6-1,0.6
			c-0.3,0-0.7-0.1-1-0.4c-0.4-0.3-0.6-0.7-0.5-1.1c0-0.4,0.2-0.8,0.6-1.2c0.4-0.4,0.8-0.7,1.2-0.8c0.4-0.1,0.8,0.1,1.1,0.3
			c0.3,0.2,0.4,0.5,0.5,0.7c0.1,0.3,0,0.5-0.1,0.8l0.4,0.4c0.3-0.5,0.4-1,0.2-1.4c-0.1-0.3-0.3-0.6-0.6-0.9
			C182.2,65.8,181.7,65.6,181.1,65.7z"/>
		<path class="st1" d="M183,71.8l2.4-3.6l-0.5-0.3l-2.4,3.6L183,71.8z"/>
		<path class="st1" d="M183.9,72.3l2.1-3.8l0.5,0.3l-1,1.9l2.9-0.8l0.7,0.4l-2.4,0.7L187,74l-0.7-0.4L186,71l-0.9,0.3l-0.7,1.3
			L183.9,72.3z"/>
		<g>
			<path class="st1" d="M190.6,72.8c-0.1,0.5-0.1,0.9,0,1.3c0.2,0.6,0.6,0.9,1.3,1c0.7,0.1,1.3-0.1,1.6-0.5c0.2-0.3,0.3-0.7,0.4-1.2
				l0.4-2.4l-0.6-0.1l-0.5,2.6c-0.1,0.3-0.1,0.6-0.3,0.7c-0.2,0.3-0.6,0.4-1.1,0.3c-0.4-0.1-0.7-0.3-0.8-0.6c-0.1-0.2-0.1-0.5,0-0.8
				l0.5-2.6l-0.6-0.1L190.6,72.8z"/>
			<path class="st1" d="M195.7,75.4l-0.1-3.5l2.3,3.5l0.7,0l-0.1-4.3l-0.6,0l0.1,3.5l-2.3-3.5l-0.7,0l0.1,4.3L195.7,75.4z"/>
			<path class="st1" d="M200.6,75l-0.7-4.3l-0.6,0.1l0.7,4.3L200.6,75z"/>
			<path class="st1" d="M200.4,70.7l0.6-0.2l2.3,3.1l0-3.9l0.6-0.2l-0.2,4.6l-0.6,0.2L200.4,70.7z"/>
			<path class="st1" d="M209.2,71.7l-0.3-0.5l-2.3,1.3l-0.7-1.3L208,70l-0.2-0.4l-2.1,1.1l-0.6-1.2l2.3-1.2l-0.3-0.5l-2.8,1.5
				l2.1,3.8L209.2,71.7z"/>
			<path class="st1" d="M208.4,67.5l1.1-0.9c0.2-0.1,0.3-0.2,0.4-0.2c0.3-0.1,0.5,0,0.7,0.3c0.2,0.2,0.2,0.4,0.2,0.6
				c-0.1,0.2-0.2,0.4-0.4,0.5l-1.1,0.8L208.4,67.5z M210.8,70.5l-1.2-1.4l1-0.8c0.2-0.2,0.3-0.2,0.5-0.3c0.2-0.1,0.4,0,0.6,0.3
				l0.5,0.5c0.1,0.1,0.2,0.2,0.2,0.3s0.1,0.1,0.1,0.1l0.6-0.4l-0.1-0.1c-0.1,0-0.2,0-0.3-0.1c-0.1-0.1-0.2-0.1-0.3-0.3l-0.4-0.4
				c-0.2-0.2-0.3-0.3-0.4-0.3c-0.1,0-0.3,0-0.5,0c0.1-0.2,0.1-0.4,0.1-0.6c0-0.2-0.1-0.4-0.3-0.6c-0.3-0.4-0.7-0.5-1.1-0.4
				c-0.2,0.1-0.5,0.2-0.7,0.4l-1.6,1.3l2.7,3.4L210.8,70.5z"/>
			<path class="st1" d="M214,67.4c0.4-0.1,0.8-0.3,1.1-0.7c0.3-0.3,0.5-0.7,0.6-1.1c0.1-0.4-0.1-0.8-0.4-1.1
				c-0.3-0.3-0.6-0.3-0.9-0.3c-0.2,0-0.4,0.2-0.6,0.3l-0.5,0.4c-0.3,0.3-0.6,0.4-0.7,0.4c-0.2,0.1-0.4,0-0.5-0.1
				c-0.1-0.1-0.2-0.3-0.2-0.5s0.1-0.4,0.3-0.7c0.3-0.3,0.6-0.5,0.9-0.5c0.2,0,0.3,0.1,0.5,0.2l0.4-0.4c-0.4-0.3-0.7-0.4-1.1-0.3
				s-0.7,0.3-1,0.7c-0.3,0.4-0.5,0.7-0.5,1.1c0,0.4,0.2,0.7,0.5,0.9c0.3,0.2,0.6,0.3,0.9,0.2c0.2-0.1,0.4-0.2,0.8-0.4l0.5-0.4
				c0.3-0.2,0.5-0.3,0.7-0.4c0.2,0,0.4,0,0.5,0.2c0.2,0.2,0.3,0.5,0.1,0.8c-0.1,0.2-0.2,0.3-0.3,0.5c-0.3,0.4-0.7,0.5-1,0.5
				c-0.2,0-0.4-0.1-0.6-0.3l-0.4,0.4C213.2,67.3,213.6,67.4,214,67.4z"/>
			<path class="st1" d="M217.2,63.8l-3.6-2.4l-0.3,0.5l3.6,2.4L217.2,63.8z"/>
			<path class="st1" d="M213.9,61l1.6-3.1l0.5,0.2l-0.7,1.3l3.4,1.8l-0.3,0.5l-3.4-1.8l-0.7,1.3L213.9,61z"/>
			<path class="st1" d="M220.1,57.7l0.2-0.6l-1.7-0.5l-2-2.3l-0.2,0.7l1.6,1.8l-2.4,0.5l-0.2,0.7l3-0.8L220.1,57.7z"/>
		</g>
		<g>
			<polygon class="st1" points="189.9,43 189.9,38.9 198.9,38.9 198.9,40.2 199.1,40.2 199.1,38.6 189.6,38.6 189.6,43.2 
				192.9,43.2 192.9,43 			"/>
			<g>
				<g>
					<g>
						<g>
							<path class="st1" d="M198.6,47.1l-0.1,0.1c0,0.3,0,0.5-0.1,0.8c-0.1,0.1-0.2,0.1-0.4,0.1c-0.1,0-0.1-0.1-0.1-0.2h-0.4
								l-0.1,0.5c0.3,0,0.5,0.1,0.7-0.2c0.1,0.1,0.4,0.2,0.4,0.4c0,0.1-0.1,0.1-0.2,0.1c0,0.2,0,0.5-0.1,0.7c0.1,0,0.2,0,0.3,0
								c0.2-0.8,0.3-1.8,0.4-2.7c0.2,0,0.5,0,0.8,0.1c0,0.1-0.1,0.1-0.1,0.1l0,0c-0.2,0.8-0.5,1.6-0.8,2.4l0,0l0.9-0.1
								c0-0.4-0.2-0.7-0.3-1c0.1,0,0.2,0.1,0.3,0.2c0.4,0.3,0.6,0.8,0.5,1.3c0,0.1-0.1,0.2-0.2,0.3c-0.1,0-0.2,0-0.2,0
								c-0.1-0.1-0.1-0.3-0.1-0.4c-0.4,0.1-0.7,0.3-1.1,0.4c0,0,0,0.2-0.1,0.1c-0.1-0.2-0.1-0.3-0.2-0.5c-0.1,0.2-0.2,0.5-0.5,0.5
								c-0.1,0-0.2,0-0.2-0.1c0-0.1,0-0.3-0.2-0.3c-0.1,0-0.2,0-0.2-0.1c0.2,0,0.6,0.1,0.7-0.2c0.1-0.3,0.1-0.6,0.1-0.9
								c-0.2,0-0.3,0-0.5,0c0,0.1,0,0.2-0.1,0.2c-0.1,0-0.2,0-0.3,0c-0.1-0.1,0-0.2,0-0.3c0.1-0.3,0.1-0.6,0.1-0.9l0.4,0.2l0.4,0
								c0-0.2,0-0.4,0-0.7h-1c0,0,0-0.2,0-0.2h1.1l0.2-0.2C198.3,46.8,198.6,46.9,198.6,47.1z"/>
						</g>
						<path class="st1" d="M199.7,50.5c-0.1,0.1-0.2,0-0.3,0c0.1,0.2,0.4,0.3,0.6,0.4l0.4,0.1c0,0.1-0.2,0.1-0.2,0.2
							c0,0.1,0,0.2-0.1,0.2c-0.2-0.1-0.4-0.3-0.6-0.4l-0.1,0h-1.6c0,0-0.1-0.1,0-0.2h1.1c0.1-0.1,0.2-0.3,0.3-0.1c0,0,0,0,0,0
							c-0.1-0.1-0.2-0.2-0.2-0.3h-0.8l-0.1-0.1h0.8l0.2-0.3C199.5,50.3,199.7,50.3,199.7,50.5z"/>
						<path class="st1" d="M198.3,50.6c0,0.1-0.1,0.1-0.2,0.1c-0.3,0.3-0.7,0.7-1.1,0.8l0,0c0.3-0.4,0.6-0.8,0.8-1.2
							C198,50.4,198.1,50.5,198.3,50.6z"/>
						<path class="st1" d="M199.8,51.7c0,0.1-0.1,0.1-0.2,0.1c-0.1,0-0.1,0-0.1,0c0.2,0.3,0.6,0.4,1,0.5c0,0.1-0.1,0.1-0.1,0.2
							c0,0.1,0,0.2-0.1,0.3c-0.1,0-0.2-0.3-0.3,0v0.8c0.1-0.1,0.1-0.2,0.2-0.3c0.1,0.1,0.3,0.2,0.4,0.4l-0.1,0.1h-3.3
							c-0.1,0-0.1-0.1-0.1-0.2l0.6,0v-1.1c-0.2,0.1-0.4,0.3-0.6,0.3v0c0.3-0.4,0.6-0.7,0.8-1.2c0.2,0.1,0.4,0.2,0.5,0.3
							c0,0.1-0.1,0.1-0.2,0.1c-0.1,0.1-0.2,0.3-0.4,0.4l0.3,0.1h1.4l0.2-0.1c-0.1-0.2-0.2-0.3-0.3-0.5l0,0h-0.8c0,0,0-0.1,0-0.1h0.8
							l0.2-0.2C199.5,51.5,199.7,51.5,199.8,51.7z M198.2,52.5H198v1h0.1V52.5z M198.8,52.5h-0.1c0,0,0,0.1,0,0.1v0.9h0.2
							L198.8,52.5L198.8,52.5z M199.4,52.5h-0.1H199.4c-0.1,0.1-0.1,0.1-0.2,0.1v0.9l0.2,0V52.5z"/>
						<g>
							<path class="st1" d="M193.1,46.7c0,0.1-0.1,0.1-0.1,0.1c0,1.1,0.6,2.2,1.6,2.7c0,0.1-0.1,0-0.3,0.1c-0.1,0.1-0.1,0.3-0.2,0.3
								c-0.3-0.1-0.4-0.4-0.6-0.6c-0.4-0.6-0.5-1.3-0.6-2c-0.1,1-0.4,2.1-1.4,2.5c-0.1,0-0.3,0.1-0.4,0.1l0,0c1.3-0.6,1.4-2,1.3-3.3
								C192.6,46.6,192.8,46.6,193.1,46.7z"/>
						</g>
						<path class="st1" d="M191.7,50.6c0.2,0,0.6,0.1,0.7-0.2c0.1,0.1,0.3,0.2,0.4,0.3c0,0.1-0.1,0.1-0.1,0.2v0.9
							c-0.1,0.1-0.2,0.1-0.3,0.1c-0.1,0-0.1,0-0.1-0.1c0,0,0-0.1,0-0.1h-0.5l0,0l0,2c-0.1,0.1-0.2,0.1-0.3,0.1c-0.1,0-0.1,0-0.1-0.1
							v-3.3L191.7,50.6z M192.2,51v-0.3h-0.5V51H192.2z M192.2,51.5v-0.3h-0.5v0.3H192.2z"/>
						<path class="st1" d="M194,50.6l0.1-0.2c0.1,0.1,0.3,0.2,0.4,0.4c0,0.1-0.1,0.1-0.1,0.2v2.7c-0.1,0.2-0.2,0.2-0.4,0.2
							c-0.1,0-0.1,0-0.1-0.1v-0.2c-0.1-0.1-0.3-0.1-0.4-0.2c-0.1,0.1-0.3,0.1-0.4,0.1c-0.1-0.1-0.1-0.2-0.1-0.3l-0.5,0
							c-0.1,0.1,0.1,0.4-0.2,0.4c-0.1,0-0.2,0.1-0.3,0l0-0.1v-1.6c0.1,0,0.3,0.1,0.4,0.2h0.5l0.1-0.1c-0.1,0-0.2,0-0.2-0.1v-1.4
							l0.5,0.2L194,50.6L194,50.6z M193.9,51.1v-0.3h-0.5v0.3H193.9z M193.9,51.5v-0.3h-0.5v0.3H193.9z M193.1,52.5v-0.3h-0.5v0.3
							H193.1z M193.1,53v-0.3h-0.5V53H193.1z M193.3,51.9c0,0,0.1,0,0.2,0.1c0.3,0.2,0,0.3,0,0.3v1c0,0,0.1,0,0.3,0
							c0.1,0,0.2-0.1,0.2-0.1v-1.5h-0.5C193.4,51.8,193.3,51.9,193.3,51.9z"/>
					</g>
					<polygon class="st1" points="202.2,40.2 202.2,44.6 192.9,44.6 192.9,43.2 199.1,43.2 199.1,40.2 					"/>
				</g>
				<path class="st1" d="M192.9,40.2h5.9V43h-5.9V40.2z M197.9,41.1H196v-0.5h-0.3v0.5h-1.8v0.3h1.7c-0.3,0.7-1.7,0.8-1.7,0.8l0,0.3
					c1.6-0.1,1.9-0.9,1.9-0.9c0.4,0.8,2,0.9,2,0.9l0-0.3c-1.3-0.1-1.7-0.6-1.8-0.8h1.9L197.9,41.1L197.9,41.1z"/>
			</g>
		</g>
		<g>
			<path class="st1" d="M182,53.8c0.4,0.4,0.6,1.2,0.6,1.3l0.3-0.1c0,0-0.2-0.9-0.7-1.4L182,53.8z"/>
			<path class="st1" d="M183,52.6c0,0,0.3,0.9,1,1.6l0.2-0.2c-0.6-0.6-0.9-1.5-0.9-1.5L183,52.6z"/>
			<path class="st1" d="M181.7,45.3c-0.6,0-1.2,0.3-1.6,0.7c-1,1.1-0.4,2.3,0,2.7c0.3,0.3,1.3,0.8,2.2,0c0.3-0.2,0.4-0.5,0.4-0.9
				c0-0.3-0.1-0.6-0.3-0.8c-0.2-0.2-0.5-0.3-0.7-0.2c-0.2,0-0.4,0.2-0.5,0.3l0.2,0.1c0.1-0.1,0.2-0.2,0.3-0.2c0.2,0,0.4,0.1,0.5,0.2
				c0.2,0.2,0.3,0.4,0.2,0.7c0,0.3-0.1,0.5-0.3,0.7c-0.8,0.7-1.7,0.1-1.8,0c-0.4-0.4-0.9-1.4,0-2.3c0.3-0.4,0.8-0.6,1.4-0.6
				c0.8,0,1.6,0.3,2.4,1.1c1.1,1.1,1.1,2.8,1.1,3.9c0,1.1-0.6,4-2.5,4.4c-0.4,0.1-0.9,0-1.2-0.2c-0.4-0.3-0.6-0.7-0.6-1
				c-0.1-0.5,0.1-1,0.5-1.3c0.3-0.3,0.8-0.3,1.1-0.2c0.3,0.1,0.6,0.5,0.6,0.8c0,0.3-0.1,0.5-0.3,0.6c-0.2,0.1-0.4,0.2-0.5,0.1
				c-0.1,0-0.2-0.1-0.3-0.3l-0.2,0.1c0.1,0.2,0.3,0.3,0.5,0.4c0.2,0,0.4,0.1,0.7-0.1c0.3-0.2,0.5-0.5,0.4-0.9c0-0.4-0.3-0.8-0.8-1
				c-0.4-0.2-0.9-0.1-1.4,0.3c-0.5,0.4-0.7,0.9-0.6,1.6c0.1,0.5,0.3,0.9,0.7,1.1c0.4,0.3,0.9,0.4,1.4,0.3c2.1-0.3,2.7-3.5,2.7-4.5
				c0-1.2,0-3-1.2-4.2C183.5,45.7,182.5,45.3,181.7,45.3z"/>
			<path class="st1" d="M169.4,50.1c0,14.6,11.9,26.5,26.5,26.5s26.5-11.9,26.5-26.5s-11.9-26.5-26.5-26.5
				C181.3,23.6,169.4,35.5,169.4,50.1z M169.7,50.1c0-14.5,11.8-26.2,26.2-26.2s26.2,11.8,26.2,26.2s-11.8,26.2-26.2,26.2
				S169.7,64.5,169.7,50.1z"/>
			<path class="st1" d="M176,50.1c0,11,8.9,20,20,20c11,0,20-9,20-20s-8.9-20-20-20C184.9,30.1,176,39,176,50.1z M176.2,50.1
				c0-10.9,8.8-19.7,19.7-19.7s19.7,8.8,19.7,19.7s-8.8,19.7-19.7,19.7S176.2,60.9,176.2,50.1z"/>
			<path class="st1" d="M184.7,36.9c-0.8,0.4-1.3,1.2-1.6,2.2l-0.1,0.7c-0.1,0.9-0.4,1.9-0.9,3c-0.5,1-1,1.7-1.5,2.3l-0.6,0.8
				l0.2,0.1l0.6-0.8c0.5-0.6,1-1.3,1.5-2.4c0.5-1.2,0.7-2.2,0.9-3.1l0.1-0.7c0.2-1,0.7-1.7,1.4-2c0.6-0.3,1.3-0.3,1.9,0
				c0.5,0.3,0.9,0.7,1,1.2c0.1,0.7,0,1.5-0.5,2c-0.4,0.4-0.9,0.6-1.5,0.5c-0.9-0.1-1.1-0.7-1.1-1.2c0-0.5,0.3-1.1,0.9-1.1
				c0.4,0,0.6,0.2,0.7,0.3c0.1,0.2,0.1,0.5,0,0.8l0.2,0.1c0.2-0.3,0.2-0.7,0-1c-0.2-0.3-0.5-0.5-0.9-0.5c-0.7,0-1.1,0.7-1.2,1.4
				c0,0.6,0.3,1.4,1.4,1.5c0.9,0.1,1.4-0.3,1.7-0.6c0.5-0.5,0.7-1.4,0.6-2.2c-0.1-0.6-0.5-1.1-1.1-1.4
				C186.2,36.6,185.4,36.5,184.7,36.9z"/>
			<path class="st1" d="M191.4,31.9l-0.4,0.4c-0.4,0.4-1,1.1-2.1,2c-1.3,1-2.8,1.8-3.7,2.3l-0.6,0.3l0.1,0.2l0.6-0.3
				c0.9-0.5,2.4-1.3,3.7-2.3c1.1-0.9,1.7-1.6,2.1-2l0.4-0.4c0.2-0.1,0.8-0.2,1.4,0.2c0.3,0.2,0.5,0.6,0.5,0.9c0,0.3-0.2,0.5-0.4,0.7
				c-0.7,0.5-1.6,1.3-2.7,2.3c-0.9,0.9-1.8,2.2-2.4,3.1l-0.4,0.5l0.2,0.2l0.4-0.5c0.6-0.9,1.5-2.2,2.4-3c1.1-1.1,2-1.8,2.7-2.3
				c0.3-0.2,0.5-0.6,0.5-0.9c0-0.4-0.2-0.8-0.6-1.1C192.4,31.7,191.6,31.8,191.4,31.9z"/>
			<path class="st1" d="M185,38.4l0.1,0.2c0.1,0,1.4-0.8,1.9-1.4l-0.2-0.2C186.4,37.6,185.1,38.4,185,38.4z"/>
			<path class="st1" d="M186.3,39.6l0.2,0.1c0,0,0.3-0.6,1.4-1.4l-0.2-0.2C186.6,39,186.3,39.6,186.3,39.6z"/>
			<path class="st1" d="M181.3,47l0.2,0.2c0,0,0.7-0.9,0.9-1.6l-0.3-0.1C181.9,46.2,181.3,47,181.3,47z"/>
			<path class="st1" d="M182.5,48l0.3,0c0,0,0.1-1,1-1.8l-0.2-0.2C182.6,47,182.5,48,182.5,48z"/>
			<path class="st1" d="M204.7,36.9c-0.6,0.3-1,0.8-1.1,1.4c-0.2,0.8,0.1,1.7,0.6,2.2c0.3,0.3,0.8,0.7,1.7,0.6
				c1-0.1,1.4-0.9,1.4-1.5c0-0.6-0.4-1.3-1.2-1.4c-0.4,0-0.8,0.1-0.9,0.5s-0.2,0.7,0,1l0.2-0.1c-0.1-0.2-0.1-0.5,0-0.8
				c0.1-0.2,0.3-0.3,0.7-0.3c0.6,0,0.9,0.6,0.9,1.1s-0.3,1.1-1.1,1.2c-0.6,0.1-1.1-0.1-1.5-0.5c-0.4-0.5-0.6-1.3-0.5-2
				c0.1-0.5,0.5-1,1-1.2c0.6-0.3,1.4-0.3,1.9,0c0.7,0.3,1.2,1,1.4,2l0.1,0.7c0.2,0.9,0.4,2,0.9,3.1c0.5,1,1.1,1.9,1.6,2.6l0.6,0.9
				l0.2-0.1l-0.6-0.9c-0.5-0.7-1.1-1.5-1.6-2.5c-0.5-1.1-0.7-2.2-0.9-3l-0.1-0.7c-0.2-1.1-0.8-1.8-1.6-2.2
				C206.2,36.6,205.4,36.6,204.7,36.9z"/>
			<path class="st1" d="M198.5,32.2c-0.4,0.3-0.6,0.7-0.6,1.1c0,0.4,0.2,0.7,0.5,0.9c0.7,0.5,1.5,1.2,2.7,2.3
				c0.8,0.8,1.6,1.8,2.1,2.7l0.6,0.8l0.2-0.2l-0.6-0.8c-0.6-0.9-1.4-2-2.2-2.8c-1.1-1.1-2-1.8-2.7-2.3c-0.3-0.2-0.4-0.4-0.4-0.7
				c0-0.3,0.2-0.7,0.5-0.9c0.6-0.5,1.3-0.3,1.4-0.2l0.4,0.4c0.4,0.4,1,1.1,2.1,2c1.3,1,2.8,1.8,3.7,2.3l0.6,0.3L207,37l-0.6-0.3
				c-0.9-0.5-2.4-1.3-3.7-2.3c-1.1-0.9-1.7-1.5-2.1-2l-0.4-0.4C199.9,31.8,199.2,31.7,198.5,32.2z"/>
			<path class="st1" d="M204.5,37.2c0.5,0.6,1.8,1.3,1.8,1.3l0.1-0.2c0,0-1.2-0.7-1.7-1.3L204.5,37.2z"/>
			<path class="st1" d="M203.7,38.3c1.1,0.8,1.4,1.4,1.4,1.4l0.2-0.1c0,0-0.3-0.7-1.4-1.5L203.7,38.3z"/>
			<path class="st1" d="M207.3,46.5c-1.2,1.2-1.2,3-1.2,4.1c0,1.2,0.6,4.3,2.7,4.6c0.5,0.1,1,0,1.4-0.3c0.4-0.3,0.6-0.7,0.7-1.1
				c0.1-0.6-0.1-1.2-0.6-1.6c-0.4-0.3-0.9-0.4-1.4-0.3c-0.4,0.2-0.7,0.6-0.8,1c0,0.4,0.1,0.7,0.4,0.9c0.3,0.2,0.6,0.2,0.7,0.1
				c0.2-0.1,0.4-0.2,0.5-0.4l-0.2-0.1c-0.1,0.1-0.2,0.2-0.3,0.3c-0.2,0-0.3,0-0.5-0.1c-0.2-0.1-0.4-0.4-0.3-0.6
				c0-0.3,0.3-0.7,0.6-0.8c0.3-0.1,0.8,0,1.1,0.2c0.4,0.3,0.6,0.8,0.5,1.3c0,0.3-0.2,0.7-0.6,1c-0.3,0.2-0.7,0.3-1.2,0.2
				c-1.9-0.3-2.5-3.3-2.5-4.3c0-1.1,0-2.9,1.1-4c0.8-0.7,1.6-1.1,2.4-1.1c0.6,0,1,0.2,1.4,0.6c0.9,1,0.4,2,0,2.3
				c-0.1,0.1-1,0.7-1.8,0c-0.2-0.2-0.3-0.4-0.3-0.7c0-0.3,0.1-0.5,0.2-0.7c0.1-0.1,0.3-0.2,0.5-0.2c0.2,0,0.3,0.2,0.4,0.5l0.3-0.1
				c-0.1-0.4-0.4-0.6-0.6-0.6c-0.3-0.1-0.6,0.1-0.8,0.2c-0.2,0.2-0.3,0.5-0.3,0.8c0,0.3,0.2,0.6,0.4,0.9c0.9,0.8,1.9,0.2,2.2,0
				c0.4-0.4,1-1.6,0-2.7c-0.4-0.4-0.9-0.7-1.6-0.7C209.1,45.3,208.1,45.7,207.3,46.5z"/>
			<path class="st1" d="M209.2,45.5c0.2,0.8,0.8,1.6,0.9,1.6l0.2-0.2c0,0-0.6-0.8-0.8-1.5L209.2,45.5z"/>
			<path class="st1" d="M207.9,46.3c0.9,0.9,1,1.8,1,1.8l0.3,0c0,0-0.2-1-1.1-2L207.9,46.3z"/>
			<path class="st1" d="M208.7,55l0.3,0.1c0,0,0.2-0.8,0.6-1.3l-0.2-0.2C209,54.1,208.7,55,208.7,55z"/>
			<path class="st1" d="M207.4,54.1l0.2,0.2c0.7-0.7,1-1.6,1-1.6l-0.3-0.1C208.3,52.6,208,53.4,207.4,54.1z"/>
			<path class="st1" d="M192.8,34.4c0.1,0,1.4,0.8,2.9,0.8c2.1,0,3.1-0.8,3.1-0.8l-0.2-0.2c0,0-0.9,0.7-2.9,0.7
				c-1.5,0-2.8-0.7-2.8-0.7L192.8,34.4z"/>
			<path class="st1" d="M208.6,58.4l-0.1,0.3c-0.5,2.3-2.1,9.4-12.6,9.4c-10.6,0-12.4-7.3-12.9-9.6l-0.1-0.3
				c-0.5-1.8-1.6-3.7-1.6-3.7l-0.2,0.1c0,0,1.2,1.9,1.6,3.6l0.1,0.3c0.6,2.4,2.4,9.8,13.2,9.8c7.1,0,11.5-3.2,12.9-9.6l0.1-0.3
				c0.4-1.6,0.9-2.6,1.8-4.1l-0.2-0.1C209.5,55.7,209,56.7,208.6,58.4z"/>
			<path class="st1" d="M201.9,45.7h-5.1c-0.1,0-0.8,0.6-1,0.7c-0.1-0.1-0.9-0.7-0.9-0.7l-5.5,0l-2.7,2.9l0,8.9c0,0,7,0,7.1,0
				c0.1,0.1,0.9,0.9,0.9,0.9h2.1c0,0,0.8-0.8,0.8-0.8c0.1,0,6.8,0,6.8,0v-9.2c0-0.1-2.5-2.7-2.5-2.7L201.9,45.7
				C202,45.7,201.9,45.7,201.9,45.7z M195.9,46.7l1-0.8c0,0,4.8,0,4.9,0c0.1,0.1,2.5,2.5,2.5,2.5s0,8.6,0,8.8c-0.3,0-6.7,0-6.7,0
				s-0.8,0.8-0.8,0.8c-0.1,0-1.8,0-1.9,0c-0.1-0.1-0.9-0.9-0.9-0.9s-6.7,0-6.9,0c0-0.3,0-8.5,0-8.5c0,0,2.3-2.5,2.6-2.7
				c0.1,0,5.3,0,5.3,0l0,0c0,0,0.9,0.8,0.9,0.8L195.9,46.7L195.9,46.7z"/>
			<path class="st1" d="M189.3,45.8v8.8c0,0,5.7,0,5.7,0l0,0c0,0,0.8,0.7,0.8,0.7l0.1,0.1l1-0.9c0,0,5.1,0,5.1,0h0.1l0-8.8h-0.3
				c0,0,0,8.3,0,8.5c-0.3,0-5,0-5,0c-0.1,0-0.7,0.6-0.9,0.7c-0.1-0.1-0.8-0.7-0.8-0.7s-5.3,0-5.5,0c0-0.3,0-8.5,0-8.5L189.3,45.8
				L189.3,45.8z"/>
			<path class="st1" d="M203.1,47.1c0,0,0,8.2,0,8.5c-0.3,0-5.9,0-5.9,0c-0.1,0-1,0.9-1,0.9s-0.8,0-0.9,0c-0.1-0.1-0.8-0.8-0.8-0.8
				s-6,0-6.2,0c0-0.3,0-8.5,0-8.5h-0.3l0,8.7c0,0,6.3,0,6.4,0c0.1,0.1,0.8,0.8,0.8,0.8h1.1c0.1,0,1-0.9,1-0.9l6.1,0l0-8.7
				L203.1,47.1L203.1,47.1z"/>
			<path class="st1" d="M188.7,46.5l0,8.8c0,0,5.9,0,6,0c0.1,0.1,0.8,0.8,0.8,0.8h0.7c0,0,0.7-0.8,0.8-0.9c0.1,0,5.8,0,5.8,0v-8.7
				h-0.3c0,0,0,8.2,0,8.5c-0.3,0-5.7,0-5.7,0s-0.7,0.8-0.8,0.9c-0.1,0-0.4,0-0.5,0c-0.1-0.1-0.8-0.8-0.8-0.8s-5.6,0-5.8,0
				c0-0.3,0-8.6,0-8.6S188.7,46.5,188.7,46.5z"/>
			<path class="st1" d="M203.7,47.8c0,0,0,8.4,0,8.6c-0.3,0-6.4,0-6.4,0s-0.6,0.7-0.7,0.7c-0.1,0-1.4,0-1.5,0
				c-0.1-0.1-0.7-0.9-0.7-0.9s-6.5,0-6.8,0c0-0.3,0-8.3,0-8.3h-0.3l0,8.6c0,0,6.8,0,6.9,0c0.1,0.1,0.7,0.9,0.7,0.9h1.7
				c0,0,0.6-0.7,0.7-0.7c0.1,0,6.6,0,6.6,0v-8.9C204,47.8,203.7,47.8,203.7,47.8z"/>
			<polygon class="st1" points="186.8,57.2 186.9,57.4 189.6,54.5 189.4,54.4 			"/>
			<rect x="203" y="54" transform="matrix(0.759 -0.6511 0.6511 0.759 12.5681 145.7237)" class="st1" width="0.3" height="3.8"/>
		</g>
		<g>
			<polygon class="st1" points="187.3,28.6 185.8,26.3 185.1,26.7 186.5,29.1 			"/>
			<polygon class="st1" points="183.6,31.1 187.4,28.9 188.6,30.8 187.8,31.2 187,30 184,31.7 			"/>
			<path class="st1" d="M182.9,30.3c-0.7-0.4-0.9-1.2-0.5-1.9c0.5-0.7,1.4-1,2.1-0.6c0.7,0.4,0.9,1.2,0.5,1.9
				C184.6,30.4,183.6,30.7,182.9,30.3z M184.5,29c0-0.4-0.3-0.6-0.7-0.6c-0.4,0-0.8,0.3-0.8,0.7c0,0.4,0.3,0.6,0.7,0.6
				C184.1,29.7,184.4,29.4,184.5,29z"/>
		</g>
	</g>
</g>
</svg>
